<svg width="109" height="81" viewBox="0 0 109 81" fill="none" xmlns="http://www.w3.org/2000/svg">
<path d="M81.0283 52.404C81.0283 50.7799 80.5837 49.9345 79.7383 49.2894L53.7529 60.0126C55.0655 64.0172 53.9719 67.63 52.6627 68.6445L79.204 56.5198C79.9567 55.9307 81.0283 54.473 81.0283 52.404Z" fill="white"/>
<path fill-rule="evenodd" clip-rule="evenodd" d="M80.345 48.4944C80.0621 48.2785 79.6858 48.2292 79.3568 48.365L53.3714 59.0883C52.8876 59.2879 52.6396 59.8268 52.8026 60.3241C53.4061 62.1653 53.4512 63.9022 53.2065 65.2743C52.9522 66.7005 52.4201 67.5675 52.0502 67.8545C51.6488 68.1655 51.5443 68.7275 51.8071 69.162C52.0698 69.5965 52.6164 69.7655 53.0783 69.5545L79.6195 57.4294C79.691 57.3967 79.7584 57.3557 79.8203 57.3073C80.7843 56.5529 82.0283 54.8178 82.0283 52.404C82.0283 51.5061 81.9062 50.7403 81.6163 50.0784C81.3198 49.4014 80.8773 48.9007 80.345 48.4944ZM79.204 56.5198C79.9567 55.9307 81.0283 54.473 81.0283 52.404C81.0283 50.7799 80.5837 49.9345 79.7383 49.2894L53.7529 60.0126C54.6652 62.7959 54.4151 65.3899 53.7382 67.054C53.4412 67.784 53.062 68.3355 52.6627 68.6445L79.204 56.5198Z" fill="#CACACA"/>
<path d="M30.9715 39.0757L56.107 29.3554L79.8676 49.3851L52.5723 60.8727L30.9715 39.0757Z" fill="#CACACA"/>
<path fill-rule="evenodd" clip-rule="evenodd" d="M56.7515 28.5908C56.4723 28.3555 56.087 28.291 55.7463 28.4227L30.611 38.143C30.2965 38.2647 30.0645 38.5369 29.994 38.8668C29.9235 39.1967 30.024 39.54 30.2615 39.7796L51.8621 61.5765C52.1494 61.8665 52.5841 61.9527 52.9603 61.7943L80.2556 50.3068C80.5764 50.1718 80.8039 49.8796 80.8563 49.5355C80.9087 49.1914 80.7783 48.8448 80.5122 48.6205L56.7515 28.5908ZM56.107 29.3554L30.9715 39.0757L52.5724 60.8727L79.8677 49.3851L56.107 29.3554Z" fill="#CACACA"/>
<path d="M45.3433 41.3581L56.3336 37.0421L58.4433 38.8522L47.5458 43.416L45.3433 41.3581Z" fill="white"/>
<path d="M30.9935 46.5305C33.3965 44.5727 32.9515 41.4358 31.105 39.1221L53.5751 60.3462C54.9544 63.6611 53.8351 66.8661 52.6405 68.6335L30.9935 46.5305Z" fill="white"/>
<path fill-rule="evenodd" clip-rule="evenodd" d="M30.428 38.3862C30.0415 38.7417 29.996 39.3355 30.3235 39.7459C31.1425 40.772 31.61 41.933 31.6435 42.9914C31.676 44.0161 31.308 44.9845 30.362 45.7553C30.144 45.9328 30.011 46.1939 29.9955 46.4745C29.9795 46.7551 30.0825 47.0294 30.2795 47.2302L51.9261 69.333C52.1363 69.5475 52.4317 69.6565 52.7308 69.6295C53.0298 69.602 53.3009 69.442 53.4691 69.1935C54.7823 67.2505 56.0484 63.6872 54.4984 59.962C54.4445 59.8324 54.3639 59.7156 54.2618 59.6192L31.7915 38.3951C31.41 38.0346 30.8145 38.0307 30.428 38.3862ZM31.105 39.1221L53.5752 60.3462C54.7467 63.1618 54.1156 65.8982 53.1669 67.7415C52.9987 68.0685 52.8205 68.367 52.6406 68.6335L30.9935 46.5305C31.2405 46.3295 31.457 46.1161 31.6455 45.8924C32.644 44.7056 32.8415 43.2299 32.472 41.789C32.233 40.8562 31.756 39.938 31.105 39.1221Z" fill="#CACACA"/>
<path fill-rule="evenodd" clip-rule="evenodd" d="M32.392 46.2719C32.2 46.4703 32.205 46.7868 32.4035 46.9789L47.7098 61.7957C47.9082 61.9878 48.2247 61.9826 48.4168 61.7842C48.6088 61.5858 48.6037 61.2693 48.4053 61.0772L33.099 46.2604C32.9005 46.0683 32.584 46.0735 32.392 46.2719Z" fill="#CACACA"/>
<path fill-rule="evenodd" clip-rule="evenodd" d="M33.2745 45.0337C33.087 45.2362 33.0985 45.5525 33.301 45.7404L43.1789 54.9063C43.3813 55.0942 43.6977 55.0823 43.8855 54.8799C44.0734 54.6775 44.0615 54.3611 43.8591 54.1733L33.9815 45.0073C33.779 44.8195 33.4625 44.8313 33.2745 45.0337Z" fill="#CACACA"/>
<path fill-rule="evenodd" clip-rule="evenodd" d="M75.619 55.184C75.5108 54.9299 75.2172 54.8116 74.9631 54.9198L65.4373 58.9742C65.1832 59.0824 65.0649 59.376 65.173 59.6301C65.2811 59.8842 65.5748 60.0025 65.8289 59.8944L75.3547 55.8399C75.6088 55.7317 75.7271 55.4381 75.619 55.184Z" fill="#CACACA"/>
<path d="M34.9717 40.404C34.9717 38.7799 35.4163 37.9345 36.2617 37.2894L62.2471 48.0126C60.9345 52.0172 62.0281 55.63 63.3373 56.6445L36.796 44.5198C36.0433 43.9307 34.9717 42.473 34.9717 40.404Z" fill="white"/>
<path fill-rule="evenodd" clip-rule="evenodd" d="M35.655 36.4944C35.9379 36.2785 36.3142 36.2292 36.6432 36.365L62.6286 47.0883C63.1124 47.2879 63.3604 47.8268 63.1974 48.3241C62.5939 50.1653 62.5488 51.9022 62.7935 53.2743C63.0478 54.7005 63.5799 55.5675 63.9498 55.8545C64.3512 56.1655 64.4557 56.7275 64.1929 57.162C63.9302 57.5965 63.3836 57.7655 62.9217 57.5545L36.3805 45.4294C36.309 45.3967 36.2416 45.3557 36.1797 45.3073C35.2157 44.5529 33.9717 42.8178 33.9717 40.404C33.9717 39.5061 34.0938 38.7403 34.3837 38.0784C34.6802 37.4014 35.1227 36.9007 35.655 36.4944ZM36.796 44.5198C36.0433 43.9307 34.9717 42.473 34.9717 40.404C34.9717 38.7799 35.4163 37.9345 36.2617 37.2894L62.2471 48.0126C61.3348 50.7959 61.5849 53.3899 62.2618 55.054C62.5588 55.784 62.938 56.3355 63.3373 56.6445L36.796 44.5198Z" fill="#CACACA"/>
<path d="M85.0285 27.0757L59.893 17.3554L36.1324 37.3851L63.4277 48.8727L85.0285 27.0757Z" fill="#CACACA"/>
<path fill-rule="evenodd" clip-rule="evenodd" d="M59.2485 16.5908C59.5277 16.3555 59.913 16.291 60.2537 16.4227L85.389 26.143C85.7035 26.2647 85.9355 26.5369 86.006 26.8668C86.0765 27.1967 85.976 27.54 85.7385 27.7796L64.1379 49.5765C63.8506 49.8665 63.4159 49.9527 63.0397 49.7943L35.7444 38.3068C35.4236 38.1718 35.1961 37.8796 35.1437 37.5355C35.0913 37.1914 35.2217 36.8448 35.4878 36.6205L59.2485 16.5908ZM59.893 17.3554L85.0285 27.0757L63.4276 48.8727L36.1323 37.3851L59.893 17.3554Z" fill="#CACACA"/>
<path d="M70.6567 29.3581L59.6664 25.0421L57.5567 26.8522L68.4542 31.416L70.6567 29.3581Z" fill="white"/>
<path d="M85.0065 34.5305C82.6035 32.5727 83.0485 29.4358 84.895 27.1221L62.4249 48.3462C61.0456 51.6611 62.1649 54.8661 63.3595 56.6335L85.0065 34.5305Z" fill="white"/>
<path fill-rule="evenodd" clip-rule="evenodd" d="M85.572 26.3862C85.9585 26.7417 86.004 27.3355 85.6765 27.7459C84.8575 28.772 84.39 29.933 84.3565 30.9914C84.324 32.0161 84.692 32.9845 85.638 33.7553C85.856 33.9328 85.989 34.1939 86.0045 34.4745C86.0205 34.7551 85.9175 35.0294 85.7205 35.2302L64.0739 57.333C63.8637 57.5475 63.5683 57.6565 63.2692 57.6295C62.9702 57.602 62.6991 57.442 62.5309 57.1935C61.2177 55.2505 59.9516 51.6872 61.5016 47.962C61.5555 47.8324 61.6361 47.7156 61.7382 47.6192L84.2085 26.3951C84.59 26.0346 85.1855 26.0307 85.572 26.3862ZM84.895 27.1221L62.4248 48.3462C61.2533 51.1618 61.8844 53.8982 62.8331 55.7415C63.0013 56.0685 63.1795 56.367 63.3594 56.6335L85.0065 34.5305C84.7595 34.3295 84.543 34.1161 84.3545 33.8924C83.356 32.7056 83.1585 31.2299 83.528 29.789C83.767 28.8562 84.244 27.938 84.895 27.1221Z" fill="#CACACA"/>
<path fill-rule="evenodd" clip-rule="evenodd" d="M83.608 34.2719C83.8 34.4703 83.795 34.7868 83.5965 34.9789L68.2902 49.7957C68.0918 49.9878 67.7753 49.9826 67.5832 49.7842C67.3912 49.5858 67.3963 49.2693 67.5947 49.0772L82.901 34.2604C83.0995 34.0683 83.416 34.0735 83.608 34.2719Z" fill="#CACACA"/>
<path fill-rule="evenodd" clip-rule="evenodd" d="M82.7255 33.0337C82.913 33.2362 82.9015 33.5525 82.699 33.7404L72.8211 42.9063C72.6187 43.0942 72.3023 43.0823 72.1145 42.8799C71.9266 42.6775 71.9385 42.3611 72.1409 42.1733L82.0185 33.0073C82.221 32.8195 82.5375 32.8313 82.7255 33.0337Z" fill="#CACACA"/>
<path fill-rule="evenodd" clip-rule="evenodd" d="M40.381 43.184C40.4892 42.9299 40.7828 42.8116 41.0369 42.9198L50.5627 46.9742C50.8168 47.0824 50.9351 47.376 50.827 47.6301C50.7189 47.8842 50.4252 48.0025 50.1711 47.8944L40.6453 43.8399C40.3912 43.7317 40.2729 43.4381 40.381 43.184Z" fill="#CACACA"/>
<path d="M85.0283 35.404C85.0283 33.7799 84.5837 32.9345 83.7383 32.2894L57.7529 43.0126C59.0655 47.0172 57.9719 50.63 56.6627 51.6445L83.204 39.5198C83.9567 38.9307 85.0283 37.473 85.0283 35.404Z" fill="white"/>
<path fill-rule="evenodd" clip-rule="evenodd" d="M84.345 31.4944C84.0621 31.2785 83.6858 31.2292 83.3568 31.365L57.3714 42.0883C56.8876 42.2879 56.6396 42.8268 56.8026 43.3241C57.4061 45.1653 57.4512 46.9022 57.2065 48.2743C56.9522 49.7005 56.4201 50.5675 56.0502 50.8545C55.6488 51.1655 55.5443 51.7275 55.8071 52.162C56.0698 52.5965 56.6164 52.7655 57.0783 52.5545L83.6195 40.4294C83.691 40.3967 83.7584 40.3557 83.8203 40.3073C84.7843 39.5529 86.0283 37.8178 86.0283 35.404C86.0283 34.5061 85.9062 33.7403 85.6163 33.0784C85.3198 32.4014 84.8773 31.9007 84.345 31.4944ZM83.204 39.5198C83.9567 38.9307 85.0283 37.473 85.0283 35.404C85.0283 33.7799 84.5837 32.9345 83.7383 32.2894L57.7529 43.0126C58.6652 45.7959 58.4151 48.3899 57.7382 50.054C57.4412 50.784 57.062 51.3355 56.6627 51.6445L83.204 39.5198Z" fill="#CACACA"/>
<path d="M34.9715 22.0757L60.107 12.3554L83.8676 32.3851L56.5723 43.8727L34.9715 22.0757Z" fill="#CACACA"/>
<path fill-rule="evenodd" clip-rule="evenodd" d="M60.7515 11.5908C60.4723 11.3555 60.087 11.291 59.7463 11.4227L34.611 21.143C34.2965 21.2647 34.0645 21.5369 33.994 21.8668C33.9235 22.1967 34.024 22.54 34.2615 22.7796L55.8621 44.5765C56.1494 44.8665 56.5841 44.9527 56.9603 44.7943L84.2556 33.3068C84.5764 33.1718 84.8039 32.8796 84.8563 32.5355C84.9087 32.1914 84.7783 31.8448 84.5122 31.6205L60.7515 11.5908ZM60.107 12.3554L34.9715 22.0757L56.5724 43.8727L83.8677 32.3851L60.107 12.3554Z" fill="#CACACA"/>
<path d="M49.3433 24.3581L60.3336 20.0421L62.4433 21.8522L51.5458 26.416L49.3433 24.3581Z" fill="white"/>
<path d="M34.9935 29.5305C37.3965 27.5727 36.9515 24.4358 35.105 22.1221L57.5751 43.3462C58.9544 46.6611 57.8351 49.8661 56.6405 51.6335L34.9935 29.5305Z" fill="white"/>
<path fill-rule="evenodd" clip-rule="evenodd" d="M34.428 21.3862C34.0415 21.7417 33.996 22.3355 34.3235 22.7459C35.1425 23.772 35.61 24.933 35.6435 25.9914C35.676 27.0161 35.308 27.9845 34.362 28.7553C34.144 28.9328 34.011 29.1939 33.9955 29.4745C33.9795 29.7551 34.0825 30.0294 34.2795 30.2302L55.9261 52.333C56.1363 52.5475 56.4317 52.6565 56.7308 52.6295C57.0298 52.602 57.3009 52.442 57.4691 52.1935C58.7823 50.2505 60.0484 46.6872 58.4984 42.962C58.4445 42.8324 58.3639 42.7156 58.2618 42.6192L35.7915 21.3951C35.41 21.0346 34.8145 21.0307 34.428 21.3862ZM35.105 22.1221L57.5752 43.3462C58.7467 46.1618 58.1156 48.8982 57.1669 50.7415C56.9987 51.0685 56.8205 51.367 56.6406 51.6335L34.9935 29.5305C35.2405 29.3295 35.457 29.1161 35.6455 28.8924C36.644 27.7056 36.8415 26.2299 36.472 24.789C36.233 23.8562 35.756 22.938 35.105 22.1221Z" fill="#CACACA"/>
<path fill-rule="evenodd" clip-rule="evenodd" d="M36.392 29.2719C36.2 29.4703 36.205 29.7868 36.4035 29.9789L51.7098 44.7957C51.9082 44.9878 52.2247 44.9826 52.4168 44.7842C52.6088 44.5858 52.6037 44.2693 52.4053 44.0772L37.099 29.2604C36.9005 29.0683 36.584 29.0735 36.392 29.2719Z" fill="#CACACA"/>
<path fill-rule="evenodd" clip-rule="evenodd" d="M37.2745 28.0337C37.087 28.2362 37.0985 28.5525 37.301 28.7404L47.1789 37.9063C47.3813 38.0942 47.6977 38.0823 47.8855 37.8799C48.0734 37.6775 48.0615 37.3611 47.8591 37.1733L37.9815 28.0073C37.779 27.8195 37.4625 27.8313 37.2745 28.0337Z" fill="#CACACA"/>
<path fill-rule="evenodd" clip-rule="evenodd" d="M79.619 38.184C79.5108 37.9299 79.2172 37.8116 78.9631 37.9198L69.4373 41.9742C69.1832 42.0824 69.0649 42.376 69.173 42.6301C69.2811 42.8842 69.5748 43.0025 69.8289 42.8944L79.3547 38.8399C79.6088 38.7317 79.7271 38.4381 79.619 38.184Z" fill="#CACACA"/>
<path d="M0.984 74.456C0.984 75.232 1.172 75.824 1.548 76.232C1.932 76.64 2.4 76.844 2.952 76.844C3.504 76.844 3.956 76.712 4.308 76.448C4.66 76.176 4.836 75.752 4.836 75.176C4.836 74.656 4.56 74.192 4.008 73.784C3.768 73.608 3.5 73.436 3.204 73.268C2.908 73.092 2.612 72.912 2.316 72.728C2.02 72.544 1.752 72.352 1.512 72.152C0.96 71.688 0.684 71.148 0.684 70.532C0.684 69.908 0.908 69.412 1.356 69.044C1.812 68.676 2.412 68.492 3.156 68.492C3.908 68.492 4.604 68.656 5.244 68.984C5.244 69.384 5.184 70.072 5.064 71.048L4.884 71C4.884 70.248 4.7 69.688 4.332 69.32C3.964 68.944 3.54 68.756 3.06 68.756C2.588 68.756 2.208 68.896 1.92 69.176C1.632 69.448 1.488 69.772 1.488 70.148C1.488 70.524 1.588 70.848 1.788 71.12C1.996 71.384 2.252 71.604 2.556 71.78C2.868 71.956 3.204 72.152 3.564 72.368C3.924 72.576 4.256 72.784 4.56 72.992C4.872 73.192 5.128 73.456 5.328 73.784C5.536 74.112 5.64 74.48 5.64 74.888C5.64 75.624 5.376 76.18 4.848 76.556C4.328 76.932 3.7 77.12 2.964 77.12C2.556 77.12 2.136 77.056 1.704 76.928C1.28 76.8 0.932 76.612 0.66 76.364C0.66 75.852 0.708 75.204 0.804 74.42L0.984 74.456ZM11.6327 73.964H7.69669V74.168C7.69669 75.016 7.87669 75.664 8.23669 76.112C8.59669 76.552 9.04469 76.772 9.58069 76.772C10.3807 76.772 10.9567 76.452 11.3087 75.812L11.4887 75.908C11.0727 76.716 10.3767 77.12 9.40069 77.12C8.68069 77.12 8.06469 76.86 7.55269 76.34C7.04069 75.82 6.78469 75.12 6.78469 74.24C6.78469 73.352 7.00869 72.624 7.45669 72.056C7.91269 71.488 8.51669 71.204 9.26869 71.204C10.0287 71.204 10.6127 71.464 11.0207 71.984C11.4287 72.496 11.6327 73.156 11.6327 73.964ZM9.30469 71.444C8.84069 71.444 8.47269 71.644 8.20069 72.044C7.93669 72.436 7.77669 72.96 7.72069 73.616H10.7087C10.6527 72.168 10.1847 71.444 9.30469 71.444ZM18.1504 73.352C18.2224 72.776 18.4064 72.276 18.7024 71.852C19.0064 71.42 19.4264 71.204 19.9624 71.204C20.4984 71.204 20.9144 71.368 21.2104 71.696C21.5064 72.024 21.6544 72.5 21.6544 73.124V75.02C21.6544 75.852 21.7064 76.368 21.8104 76.568C21.9224 76.76 22.2104 76.856 22.6744 76.856L22.6984 77H19.8664L19.8904 76.856C20.3304 76.856 20.5944 76.756 20.6824 76.556C20.7704 76.356 20.8144 75.808 20.8144 74.912V73.244C20.8144 72.692 20.7344 72.276 20.5744 71.996C20.4224 71.716 20.1744 71.576 19.8304 71.576C19.4864 71.576 19.2024 71.704 18.9784 71.96C18.7544 72.208 18.5864 72.524 18.4744 72.908C18.2584 73.652 18.1504 74.4 18.1504 75.152C18.1504 75.904 18.1984 76.376 18.2944 76.568C18.3984 76.76 18.6864 76.856 19.1584 76.856L19.1824 77H16.3624L16.3864 76.856C16.8264 76.856 17.0904 76.756 17.1784 76.556C17.2664 76.356 17.3104 75.808 17.3104 74.912V73.244C17.3104 72.692 17.2304 72.276 17.0704 71.996C16.9184 71.716 16.6704 71.576 16.3264 71.576C15.9824 71.576 15.6984 71.704 15.4744 71.96C15.2504 72.208 15.0824 72.524 14.9704 72.908C14.7544 73.652 14.6464 74.4 14.6464 75.152C14.6464 75.904 14.6944 76.376 14.7904 76.568C14.8944 76.76 15.1824 76.856 15.6544 76.856L15.6784 77H12.7504L12.7744 76.856C13.2544 76.856 13.5464 76.76 13.6504 76.568C13.7544 76.368 13.8064 75.844 13.8064 74.996V74.036C13.8064 72.836 13.7464 72.112 13.6264 71.864C13.5864 71.776 13.5144 71.696 13.4104 71.624C13.3144 71.552 13.2064 71.508 13.0864 71.492C12.9744 71.476 12.8184 71.468 12.6184 71.468L12.5944 71.336C13.2904 71.248 13.9744 71.204 14.6464 71.204V73.352C14.7184 72.776 14.9024 72.276 15.1984 71.852C15.5024 71.42 15.9224 71.204 16.4584 71.204C17.5864 71.204 18.1504 71.92 18.1504 73.352ZM32.4105 77H26.6745L26.6985 76.856C26.8905 76.856 27.0425 76.848 27.1545 76.832C27.2745 76.816 27.3825 76.772 27.4785 76.7C27.5745 76.628 27.6425 76.548 27.6825 76.46C27.7305 76.364 27.7705 76.208 27.8025 75.992C27.8425 75.712 27.8625 75.144 27.8625 74.288V71.312C27.8625 70.12 27.8065 69.396 27.6945 69.14C27.5905 68.916 27.4145 68.788 27.1665 68.756C27.0465 68.74 26.8905 68.732 26.6985 68.732L26.6745 68.6H29.9025L29.8785 68.732C29.4785 68.732 29.1865 68.808 29.0025 68.96C28.8025 69.128 28.7025 69.912 28.7025 71.312V74.468C28.7025 75.332 28.7305 75.908 28.7865 76.196C28.8425 76.476 28.9745 76.664 29.1825 76.76C31.2465 76.76 32.2785 76.268 32.2785 75.284L32.4105 75.26V77ZM34.183 69.764C34.047 69.628 33.979 69.468 33.979 69.284C33.979 69.1 34.047 68.94 34.183 68.804C34.319 68.668 34.479 68.6 34.663 68.6C34.847 68.6 35.007 68.668 35.143 68.804C35.279 68.94 35.347 69.1 35.347 69.284C35.347 69.468 35.279 69.628 35.143 69.764C35.007 69.9 34.847 69.968 34.663 69.968C34.479 69.968 34.319 69.9 34.183 69.764ZM35.119 71.204V75.02C35.119 75.86 35.167 76.376 35.263 76.568C35.367 76.76 35.655 76.856 36.127 76.856L36.151 77H33.223L33.247 76.856C33.727 76.856 34.019 76.76 34.123 76.568C34.227 76.368 34.279 75.844 34.279 74.996V74.156C34.279 73.228 34.251 72.616 34.195 72.32C34.147 72.016 34.075 71.82 33.979 71.732C33.787 71.556 33.491 71.468 33.091 71.468L33.067 71.336C33.763 71.248 34.447 71.204 35.119 71.204ZM38.4236 72.008C38.4236 72.376 38.6116 73.032 38.9876 73.976L39.9116 76.304L40.8476 73.424C41.0316 72.848 41.1236 72.412 41.1236 72.116C41.1236 71.684 40.8436 71.468 40.2836 71.468L40.2596 71.324H42.5156L42.4916 71.468C42.1636 71.468 41.9316 71.576 41.7956 71.792C41.6676 72 41.4236 72.652 41.0636 73.748L39.9836 77.036H39.2756L37.7156 73.052C37.4516 72.38 37.2116 71.948 36.9956 71.756C36.7876 71.564 36.5356 71.468 36.2396 71.468L36.2156 71.324H39.1916L39.1676 71.468C38.8876 71.468 38.6916 71.512 38.5796 71.6C38.4756 71.688 38.4236 71.824 38.4236 72.008ZM46.6916 71.144C46.8916 71.144 47.0676 71.188 47.2196 71.276C47.3716 71.364 47.4476 71.484 47.4476 71.636C47.4476 71.788 47.3996 71.908 47.3036 71.996C47.2076 72.084 47.0996 72.128 46.9796 72.128C46.8596 72.128 46.7076 72.076 46.5236 71.972C46.3476 71.868 46.1596 71.816 45.9596 71.816C45.6476 71.816 45.3916 72.104 45.1916 72.68C44.9996 73.256 44.9036 73.924 44.9036 74.684C44.9036 75.708 44.9556 76.328 45.0596 76.544C45.0916 76.616 45.1516 76.684 45.2396 76.748C45.3276 76.804 45.4196 76.836 45.5156 76.844C45.6116 76.852 45.7476 76.856 45.9236 76.856L45.9476 77H43.0316L43.0556 76.856C43.3116 76.856 43.4956 76.844 43.6076 76.82C43.7276 76.788 43.8276 76.688 43.9076 76.52C43.9876 76.352 44.0316 76.144 44.0396 75.896C44.0556 75.64 44.0636 75.236 44.0636 74.684V73.988C44.0636 72.876 44.0316 72.244 43.9676 72.092C43.9116 71.94 43.8596 71.82 43.8116 71.732C43.7636 71.644 43.6916 71.584 43.5956 71.552C43.4196 71.504 43.1876 71.48 42.8996 71.48L42.8756 71.348C43.5556 71.252 44.2316 71.204 44.9036 71.204V72.968C44.9916 72.4 45.1876 71.956 45.4916 71.636C45.8036 71.308 46.2036 71.144 46.6916 71.144ZM47.812 74.168C47.812 73.328 48.052 72.624 48.532 72.056C49.012 71.488 49.664 71.204 50.488 71.204C51.312 71.204 51.976 71.488 52.48 72.056C52.984 72.624 53.236 73.328 53.236 74.168C53.236 75.008 52.992 75.712 52.504 76.28C52.024 76.84 51.372 77.12 50.548 77.12C49.724 77.12 49.06 76.836 48.556 76.268C48.06 75.7 47.812 75 47.812 74.168ZM49.192 76.112C49.512 76.624 49.964 76.88 50.548 76.88C51.132 76.88 51.572 76.628 51.868 76.124C52.172 75.62 52.324 74.972 52.324 74.18C52.324 73.38 52.164 72.724 51.844 72.212C51.524 71.7 51.072 71.444 50.488 71.444C49.912 71.444 49.472 71.7 49.168 72.212C48.872 72.716 48.724 73.364 48.724 74.156C48.724 74.948 48.88 75.6 49.192 76.112ZM54.5828 75.212C54.5828 75.732 54.7228 76.124 55.0028 76.388C55.2828 76.644 55.6148 76.772 55.9988 76.772C56.3908 76.772 56.7068 76.684 56.9468 76.508C57.1868 76.332 57.3068 76.096 57.3068 75.8C57.3068 75.496 57.2028 75.248 56.9948 75.056C56.7948 74.864 56.5508 74.708 56.2628 74.588C55.9748 74.468 55.6828 74.344 55.3868 74.216C55.0988 74.088 54.8508 73.9 54.6428 73.652C54.4428 73.404 54.3428 73.072 54.3428 72.656C54.3428 72.24 54.5268 71.896 54.8948 71.624C55.2708 71.344 55.7028 71.204 56.1908 71.204C56.8868 71.204 57.4308 71.316 57.8228 71.54C57.8228 71.908 57.7748 72.42 57.6788 73.076L57.5348 73.04C57.5348 72.512 57.4148 72.128 57.1748 71.888C56.9348 71.648 56.6428 71.528 56.2988 71.528C55.9628 71.528 55.6908 71.616 55.4827 71.792C55.2828 71.968 55.1828 72.208 55.1828 72.512C55.1828 72.808 55.2828 73.048 55.4827 73.232C55.6908 73.408 55.9388 73.556 56.2268 73.676C56.5148 73.796 56.8028 73.924 57.0908 74.06C57.3868 74.188 57.6348 74.376 57.8348 74.624C58.0428 74.864 58.1468 75.16 58.1468 75.512C58.1468 76.024 57.9468 76.42 57.5468 76.7C57.1468 76.98 56.6188 77.12 55.9628 77.12C55.3148 77.12 54.7668 76.948 54.3188 76.604C54.3188 76.204 54.3588 75.732 54.4388 75.188L54.5828 75.212ZM68.3843 77C68.1843 77 67.9843 76.9 67.7843 76.7C67.5923 76.492 67.4163 76.236 67.2563 75.932C67.1043 75.628 66.9243 75.3 66.7163 74.948C66.5083 74.588 66.3003 74.252 66.0923 73.94C65.8843 73.628 65.6203 73.364 65.3003 73.148C64.9803 72.932 64.6403 72.816 64.2803 72.8V74.288C64.2803 75.152 64.3043 75.74 64.3523 76.052C64.4083 76.356 64.4843 76.548 64.5803 76.628C64.7723 76.78 65.0683 76.856 65.4683 76.856L65.4923 77H62.2763L62.3003 76.856C62.6923 76.856 62.9803 76.784 63.1643 76.64C63.3163 76.52 63.4043 76.128 63.4283 75.464C63.4443 75.2 63.4523 74.808 63.4523 74.288V71.252C63.4523 70.364 63.4283 69.776 63.3803 69.488C63.3323 69.2 63.2603 69.02 63.1643 68.948C62.9803 68.812 62.6923 68.744 62.3003 68.744L62.2763 68.6H65.0603C67.0763 68.6 68.0843 69.28 68.0843 70.64C68.0843 71.224 67.8763 71.716 67.4603 72.116C67.0523 72.508 66.5563 72.736 65.9723 72.8C66.5563 73.144 67.0963 73.776 67.5923 74.696C67.7843 75.056 67.9883 75.4 68.2043 75.728C68.6763 76.48 69.2843 76.856 70.0283 76.856L70.0523 77H68.3843ZM64.2803 68.876V72.56H65.0363C65.6443 72.56 66.1483 72.404 66.5483 72.092C66.9483 71.78 67.1483 71.316 67.1483 70.7C67.1483 69.484 66.4523 68.876 65.0603 68.876H64.2803ZM74.785 73.964H70.849V74.168C70.849 75.016 71.029 75.664 71.389 76.112C71.749 76.552 72.197 76.772 72.733 76.772C73.533 76.772 74.109 76.452 74.461 75.812L74.641 75.908C74.225 76.716 73.529 77.12 72.553 77.12C71.833 77.12 71.217 76.86 70.705 76.34C70.193 75.82 69.937 75.12 69.937 74.24C69.937 73.352 70.161 72.624 70.609 72.056C71.065 71.488 71.669 71.204 72.421 71.204C73.181 71.204 73.765 71.464 74.173 71.984C74.581 72.496 74.785 73.156 74.785 73.964ZM72.457 71.444C71.993 71.444 71.625 71.644 71.353 72.044C71.089 72.436 70.929 72.96 70.873 73.616H73.861C73.805 72.168 73.337 71.444 72.457 71.444ZM78.4347 77.12C77.7307 77.12 77.1267 76.86 76.6227 76.34C76.1187 75.82 75.8667 75.116 75.8667 74.228C75.8667 73.332 76.0947 72.604 76.5507 72.044C77.0147 71.484 77.6707 71.204 78.5187 71.204C79.0467 71.204 79.5067 71.292 79.8987 71.468C80.2907 71.636 80.4867 71.872 80.4867 72.176C80.4867 72.448 80.3387 72.584 80.0427 72.584C79.8907 72.584 79.7627 72.524 79.6587 72.404C79.5627 72.284 79.4867 72.156 79.4307 72.02C79.3827 71.876 79.2827 71.744 79.1307 71.624C78.9787 71.504 78.7787 71.444 78.5307 71.444C77.9547 71.444 77.5187 71.684 77.2227 72.164C76.9267 72.644 76.7787 73.304 76.7787 74.144C76.7787 74.976 76.9547 75.624 77.3067 76.088C77.6587 76.544 78.0947 76.772 78.6147 76.772C79.4067 76.772 79.9707 76.452 80.3067 75.812L80.4867 75.908C80.0787 76.716 79.3947 77.12 78.4347 77.12ZM86.1171 73.964H82.1811V74.168C82.1811 75.016 82.3611 75.664 82.7211 76.112C83.0811 76.552 83.5291 76.772 84.0651 76.772C84.8651 76.772 85.4411 76.452 85.7931 75.812L85.9731 75.908C85.5571 76.716 84.8611 77.12 83.8851 77.12C83.1651 77.12 82.5491 76.86 82.0371 76.34C81.5251 75.82 81.2691 75.12 81.2691 74.24C81.2691 73.352 81.4931 72.624 81.9411 72.056C82.3971 71.488 83.0011 71.204 83.7531 71.204C84.5131 71.204 85.0971 71.464 85.5051 71.984C85.9131 72.496 86.1171 73.156 86.1171 73.964ZM83.7891 71.444C83.3251 71.444 82.9571 71.644 82.6851 72.044C82.4211 72.436 82.2611 72.96 82.2051 73.616H85.1931C85.1371 72.168 84.6691 71.444 83.7891 71.444ZM89.1308 71.204V73.352C89.2028 72.776 89.4028 72.276 89.7308 71.852C90.0588 71.42 90.4948 71.204 91.0388 71.204C92.2628 71.204 92.8748 71.844 92.8748 73.124V75.02C92.8748 75.852 92.9268 76.368 93.0308 76.568C93.1428 76.76 93.4308 76.856 93.8948 76.856L93.9188 77H91.0028L91.0268 76.856C91.5068 76.856 91.7948 76.756 91.8908 76.556C91.9868 76.356 92.0348 75.808 92.0348 74.912V73.244C92.0348 72.692 91.9468 72.276 91.7708 71.996C91.6028 71.716 91.3308 71.576 90.9548 71.576C90.5868 71.576 90.2788 71.704 90.0308 71.96C89.7828 72.208 89.5988 72.524 89.4788 72.908C89.2468 73.652 89.1308 74.4 89.1308 75.152C89.1308 75.904 89.1788 76.376 89.2748 76.568C89.3788 76.76 89.6668 76.856 90.1388 76.856L90.1628 77H87.2348L87.2588 76.856C87.7388 76.856 88.0308 76.76 88.1348 76.568C88.2388 76.368 88.2908 75.844 88.2908 74.996V74.036C88.2908 72.836 88.2308 72.112 88.1108 71.864C88.0708 71.776 87.9988 71.696 87.8948 71.624C87.7988 71.552 87.6908 71.508 87.5708 71.492C87.4588 71.476 87.3028 71.468 87.1028 71.468L87.0788 71.336C87.7748 71.248 88.4588 71.204 89.1308 71.204ZM96.3893 71.324H97.8653V71.588H96.3893V76.16C96.3893 76.328 96.4293 76.464 96.5093 76.568C96.5893 76.664 96.6933 76.712 96.8213 76.712C97.1093 76.712 97.4493 76.628 97.8413 76.46L97.8653 76.592C97.3053 76.944 96.8093 77.12 96.3773 77.12C96.0973 77.12 95.8893 77.052 95.7533 76.916C95.6173 76.78 95.5493 76.544 95.5493 76.208V71.588H94.8293V71.324C95.2613 71.324 95.5613 71.204 95.7293 70.964C95.9053 70.716 96.0373 70.352 96.1253 69.872L96.3893 69.848V71.324ZM103.437 73.964H99.5014V74.168C99.5014 75.016 99.6814 75.664 100.041 76.112C100.401 76.552 100.849 76.772 101.385 76.772C102.185 76.772 102.761 76.452 103.113 75.812L103.293 75.908C102.877 76.716 102.181 77.12 101.205 77.12C100.485 77.12 99.8694 76.86 99.3574 76.34C98.8454 75.82 98.5894 75.12 98.5894 74.24C98.5894 73.352 98.8134 72.624 99.2614 72.056C99.7174 71.488 100.321 71.204 101.073 71.204C101.833 71.204 102.417 71.464 102.825 71.984C103.233 72.496 103.437 73.156 103.437 73.964ZM101.109 71.444C100.645 71.444 100.277 71.644 100.005 72.044C99.7414 72.436 99.5814 72.96 99.5254 73.616H102.513C102.457 72.168 101.989 71.444 101.109 71.444ZM104.903 75.212C104.903 75.732 105.043 76.124 105.323 76.388C105.603 76.644 105.935 76.772 106.319 76.772C106.711 76.772 107.027 76.684 107.267 76.508C107.507 76.332 107.627 76.096 107.627 75.8C107.627 75.496 107.523 75.248 107.315 75.056C107.115 74.864 106.871 74.708 106.583 74.588C106.295 74.468 106.003 74.344 105.707 74.216C105.419 74.088 105.171 73.9 104.963 73.652C104.763 73.404 104.663 73.072 104.663 72.656C104.663 72.24 104.847 71.896 105.215 71.624C105.591 71.344 106.023 71.204 106.511 71.204C107.207 71.204 107.751 71.316 108.143 71.54C108.143 71.908 108.095 72.42 107.999 73.076L107.855 73.04C107.855 72.512 107.735 72.128 107.495 71.888C107.255 71.648 106.963 71.528 106.619 71.528C106.283 71.528 106.011 71.616 105.803 71.792C105.603 71.968 105.503 72.208 105.503 72.512C105.503 72.808 105.603 73.048 105.803 73.232C106.011 73.408 106.259 73.556 106.547 73.676C106.835 73.796 107.123 73.924 107.411 74.06C107.707 74.188 107.955 74.376 108.155 74.624C108.363 74.864 108.467 75.16 108.467 75.512C108.467 76.024 108.267 76.42 107.867 76.7C107.467 76.98 106.939 77.12 106.283 77.12C105.635 77.12 105.087 76.948 104.639 76.604C104.639 76.204 104.679 75.732 104.759 75.188L104.903 75.212Z" fill="#CACACA"/>
</svg>
