<svg width="32" height="32" viewBox="0 0 32 32" fill="none" xmlns="http://www.w3.org/2000/svg">
<path d="M32 16C32 23.732 24.8366 30 16 30C14.3665 30 12.7902 29.7858 11.3057 29.3878C10.138 29.9795 7.45548 31.1168 2.94344 31.8555C2.54541 31.9207 2.24073 31.5043 2.39796 31.1328C3.10617 29.4598 3.74501 27.2323 3.93957 25.2001C1.48612 22.7398 0 19.5217 0 16C0 8.26801 7.16344 2 16 2C24.8366 2 32 8.26801 32 16ZM10 16C10 14.8954 9.10457 14 8 14C6.89543 14 6 14.8954 6 16C6 17.1046 6.89543 18 8 18C9.10457 18 10 17.1046 10 16ZM18 16C18 14.8954 17.1046 14 16 14C14.8954 14 14 14.8954 14 16C14 17.1046 14.8954 18 16 18C17.1046 18 18 17.1046 18 16ZM24 18C25.1046 18 26 17.1046 26 16C26 14.8954 25.1046 14 24 14C22.8954 14 22 14.8954 22 16C22 17.1046 22.8954 18 24 18Z" fill="white"/>
</svg>
