<svg width="70" height="74" viewBox="0 0 70 74" fill="none" xmlns="http://www.w3.org/2000/svg">
<g clip-path="url(#clip0_10_16)">
<rect x="10" y="6" width="52" height="51" fill="#AB0202"/>
<rect x="11" y="60" width="47" height="9" fill="white"/>
<path d="M64.8938 3.08459C64.8938 1.39109 63.5779 0 61.9759 0H16.3343C10.0695 0 5.10625 5.24683 5.10625 11.7184C5.10625 11.7184 5.10625 64.5648 5.10625 64.595C5.10625 69.8419 9.18267 74 14.1459 74H61.8329C63.0057 74 64.1643 73.2289 64.6077 71.989C65.0511 70.7491 64.7507 69.3731 63.7352 68.602C61.1463 66.8631 60.989 63.0527 63.2918 61.3592C63.7781 60.8451 64.8795 59.7867 64.7936 58.2746C64.8651 58.0327 64.8938 3.08459 64.8938 3.08459ZM10.942 64.595C10.942 62.7503 12.4009 61.3592 14.1459 61.3592H56.1545C54.8672 63.6273 55.139 66.2885 56.1545 67.8308H14.1459C12.4009 67.8308 10.942 66.4548 10.942 64.595ZM59.0723 55.19H14.1602C13.0302 55.19 11.9575 55.4168 10.9563 55.8251V11.7184C10.9563 8.63384 13.4307 6.16919 16.3486 6.16919H59.0866V55.19H59.0723Z" fill="black"/>
<path d="M29.9684 43.5639C30.3962 43.4488 30.7866 43.3593 31.1396 43.2953C31.4993 43.2447 31.9103 43.1127 32.3726 42.8994C32.8756 42.6673 33.1926 42.3479 33.3236 41.9413C33.4545 41.5347 33.4327 41.1575 33.2582 40.8094C33.1172 40.5284 32.8884 40.1889 32.5717 39.7911C32.2483 39.38 31.9725 38.9468 31.7443 38.4918C30.9735 36.7212 30.2468 34.955 29.5641 33.1932C28.8611 31.4243 28.232 29.8026 27.6767 28.3281C27.1214 26.8537 26.6498 25.5961 26.2618 24.5555C25.8671 23.5014 25.5792 22.7937 25.3979 22.4323C25.2771 22.1913 25.1052 21.9987 24.8821 21.8544C24.6523 21.6967 24.3884 21.5878 24.0903 21.5275C23.7922 21.4673 23.4803 21.4629 23.1545 21.5144C22.8084 21.5587 22.4722 21.6562 22.1459 21.8068C21.5069 22.1016 21.0881 22.4185 20.8897 22.7573C20.6846 23.0827 20.6554 23.4753 20.8023 23.935C21.8648 26.9884 22.9187 29.7575 23.9638 32.242C24.9887 34.7195 25.9941 37.0247 26.98 39.1575C27.1344 39.4653 27.1703 39.7372 27.0877 39.9731C26.9915 40.2153 26.8074 40.3992 26.5355 40.5246C25.9917 40.7756 25.4276 41.003 24.8433 41.2067C24.2523 41.397 23.6613 41.5873 23.0703 41.7776C22.4793 41.968 21.8985 42.1618 21.3278 42.3593C20.7368 42.5496 20.1829 42.764 19.6663 43.0024C19.3264 43.1593 19.0746 43.3249 18.9109 43.4993C18.7337 43.68 18.6242 43.8624 18.5826 44.0464C18.5274 44.2368 18.5298 44.4252 18.5898 44.6118C18.6296 44.7912 18.6898 44.9612 18.7703 45.1218C18.8979 45.3762 19.0526 45.6179 19.2345 45.8471C19.4165 46.0764 19.6291 46.2667 19.8725 46.4181C20.1091 46.5561 20.3766 46.6387 20.6748 46.6659C20.9798 46.7065 21.3158 46.6586 21.6827 46.5222C23.4355 45.9111 25.0255 45.3257 26.4526 44.766C27.8661 44.2126 29.038 43.8119 29.9684 43.5639Z" fill="white"/>
<path d="M29.1688 34.6017C29.1244 34.6087 29.0516 34.6277 28.9504 34.6587C28.8639 34.6874 28.7627 34.7184 28.6467 34.7518C28.5454 34.7828 28.4442 34.8138 28.343 34.8449C28.2417 34.8759 28.1615 34.896 28.1024 34.9053C27.6882 34.9702 27.299 34.8569 26.9351 34.5654C26.5687 34.259 26.3404 33.8174 26.2499 33.2404C26.1897 32.8558 26.2574 32.4663 26.4533 32.0718C26.6491 31.6774 26.9948 31.32 27.4902 30.9999C27.6414 30.9004 27.7543 30.7993 27.8292 30.6967C27.9165 30.5769 27.9463 30.4282 27.9184 30.2507C27.8442 29.7773 27.7506 29.2767 27.6376 28.7487C27.537 28.2037 27.4077 27.5722 27.2497 26.8543C27.2117 26.7087 27.1379 26.5763 27.0283 26.457C26.9334 26.3355 26.8215 26.2015 26.6924 26.055C26.5758 25.8914 26.4643 25.7118 26.3579 25.5163C26.2515 25.3208 26.1739 25.0677 26.1252 24.757C26.0812 24.476 26.0683 24.1521 26.0866 23.7855C26.1174 23.4017 26.2342 23.0348 26.437 22.6847C26.6523 22.3175 26.973 21.9945 27.3991 21.7155C27.8377 21.4194 28.4342 21.2122 29.1887 21.0939C29.4994 21.0452 29.7629 21.0343 29.9793 21.061C30.1956 21.0877 30.3847 21.1338 30.5466 21.1994C30.7209 21.2479 30.8719 21.2924 30.9995 21.333C31.1419 21.3713 31.2797 21.38 31.4128 21.3592C31.6495 21.3221 32.116 21.2035 32.8121 21.0034C33.5083 20.8034 34.3392 20.5443 35.3049 20.2262C36.2853 19.9058 37.3584 19.5482 38.5242 19.1532C39.7048 18.756 40.8979 18.3417 42.1034 17.9102C43.3066 17.4639 44.4803 17.0223 45.6243 16.5853C46.7684 16.1483 47.8026 15.7361 48.7271 15.3487C49.0114 15.2284 49.2645 15.1508 49.4864 15.116C49.797 15.0674 50.0527 15.1031 50.2534 15.2232C50.4666 15.3262 50.6338 15.4743 50.755 15.6675C50.8762 15.8607 50.9651 16.0892 51.0216 16.3532C51.0906 16.6 51.1425 16.8344 51.1773 17.0563C51.2376 17.4409 51.1613 17.8242 50.9483 18.2062C50.7479 18.5711 50.3668 18.8961 49.8052 19.1811C48.4079 19.8397 46.9877 20.4488 45.5446 21.0084C44.114 21.551 42.6651 22.0736 41.1979 22.5764C39.7284 23.0644 38.248 23.5314 36.7567 23.9773C35.2655 24.4232 33.7816 24.868 32.3052 25.3116C32.1027 25.3737 31.9601 25.4794 31.8774 25.6288C31.7924 25.7633 31.7662 25.9342 31.7986 26.1413L31.9412 27.0511C31.9806 27.3026 32.0286 27.5603 32.0852 27.8243C32.1417 28.0882 32.2095 28.3277 32.2887 28.5426C32.3826 28.7552 32.4856 28.9286 32.5975 29.0626C32.7072 29.1818 32.836 29.2298 32.9839 29.2066C33.3389 29.151 33.8747 28.9912 34.5912 28.7274C35.3224 28.4612 36.1378 28.1515 37.0374 27.7983C37.9493 27.428 38.896 27.0371 39.8773 26.6256C40.8711 26.1971 41.8104 25.8073 42.6951 25.4565C43.5775 25.0908 44.3548 24.7795 45.0269 24.5226C45.699 24.2657 46.1756 24.1152 46.4566 24.0711C46.8708 24.0062 47.2058 24.1129 47.4616 24.3911C47.7299 24.6521 47.937 25.0062 48.0828 25.4532C48.0944 25.5272 48.1123 25.5926 48.1363 25.6494C48.1604 25.7063 48.1782 25.7717 48.1898 25.8456C48.2571 26.2747 48.1865 26.6949 47.9782 27.1065C47.7824 27.501 47.3655 27.8391 46.7276 28.121C46.5594 28.208 46.2194 28.3598 45.7077 28.5764C45.1937 28.7782 44.5882 29.0247 43.8911 29.3159C43.1918 29.5922 42.4356 29.8926 41.6225 30.2171C40.8094 30.5416 40.0111 30.8637 39.2276 31.1836C38.4418 31.4886 37.7078 31.7856 37.0255 32.0744C36.3557 32.3461 35.8071 32.5685 35.3795 32.7416C34.9963 32.9078 34.765 33.0274 34.6855 33.1005C34.6208 33.1712 34.5954 33.251 34.6093 33.3398C34.6899 33.6606 34.9002 33.9383 35.2401 34.173C35.5948 34.4054 36.02 34.604 36.5157 34.7688C37.0262 34.9313 37.585 35.0635 38.1921 35.1654C38.814 35.265 39.446 35.3326 40.0882 35.3684C40.7428 35.387 41.3792 35.3858 41.9973 35.3647C42.6155 35.3436 43.1834 35.2925 43.7012 35.2113C43.9231 35.1765 44.2411 35.1267 44.6554 35.0617C45.0696 34.9968 45.5196 34.9187 46.0055 34.8274C46.5038 34.719 47.0084 34.602 47.5192 34.4765C48.0448 34.3486 48.5089 34.2152 48.9115 34.0763C49.3266 33.9203 49.658 33.7623 49.9058 33.6022C50.166 33.425 50.2822 33.2477 50.2543 33.0701C50.2288 32.9074 50.143 32.7466 49.9968 32.5876C49.8654 32.4263 49.7835 32.2421 49.7511 32.035C49.7047 31.7391 49.7408 31.4379 49.8595 31.1313C49.9759 30.81 50.1424 30.5186 50.3591 30.2573C50.5883 29.9789 50.8551 29.7476 51.1597 29.5634C51.4768 29.3621 51.8054 29.2349 52.1457 29.1815C52.5747 29.1143 52.9806 29.1416 53.3635 29.2635C53.744 29.3705 54.0821 29.5449 54.3776 29.7866C54.6857 30.0111 54.9341 30.2905 55.1228 30.6246C55.3264 30.9565 55.4572 31.3073 55.5152 31.6772C55.6682 32.6535 55.4379 33.5536 54.8244 34.3773C54.2256 35.1986 53.3852 35.929 52.3032 36.5685C51.2235 37.2227 49.9762 37.7744 48.5612 38.2236C47.1486 38.6875 45.71 39.0342 44.2454 39.2638C42.5294 39.5328 40.9428 39.6602 39.4855 39.6461C38.0306 39.6468 36.7015 39.4838 35.4984 39.157C34.2953 38.8303 33.2243 38.3312 32.2854 37.6599C31.3443 36.9738 30.5244 36.0944 29.8257 35.0217C29.5949 34.7093 29.3759 34.5693 29.1688 34.6017Z" fill="white"/>
<g clip-path="url(#clip1_10_16)">
<path d="M62 6H10V57H62V6Z" fill="#AB0202"/>
<path d="M58 60H11V69H58V60Z" fill="white"/>
<path d="M64.8938 3.08459C64.8938 1.39109 63.5779 0 61.9759 0H16.3343C10.0695 0 5.10625 5.24683 5.10625 11.7184C5.10625 11.7184 5.10625 64.5648 5.10625 64.595C5.10625 69.8418 9.18268 74 14.1459 74H61.8329C63.0057 74 64.1643 73.2289 64.6077 71.989C65.0511 70.7491 64.7507 69.3731 63.7352 68.602C61.1463 66.8631 60.989 63.0527 63.2918 61.3592C63.7781 60.8451 64.8794 59.7867 64.7936 58.2746C64.8651 58.0327 64.8938 3.08459 64.8938 3.08459ZM10.942 64.595C10.942 62.7503 12.4009 61.3592 14.1459 61.3592H56.1545C54.8672 63.6273 55.139 66.2885 56.1545 67.8308H14.1459C12.4009 67.8308 10.942 66.4548 10.942 64.595ZM59.0723 55.19H14.1602C13.0302 55.19 11.9575 55.4168 10.9563 55.8251V11.7184C10.9563 8.63384 13.4307 6.16919 16.3486 6.16919H59.0866V55.19H59.0723Z" fill="black"/>
<path d="M29.9684 43.5639C30.3962 43.4488 30.7866 43.3593 31.1396 43.2953C31.4993 43.2447 31.9103 43.1127 32.3726 42.8994C32.8756 42.6673 33.1926 42.3479 33.3236 41.9413C33.4545 41.5347 33.4327 41.1575 33.2582 40.8094C33.1172 40.5284 32.8884 40.1889 32.5717 39.7911C32.2483 39.38 31.9725 38.9468 31.7443 38.4918C30.9735 36.7212 30.2468 34.955 29.5641 33.1932C28.8611 31.4243 28.232 29.8026 27.6767 28.3281C27.1214 26.8537 26.6498 25.5961 26.2618 24.5555C25.8671 23.5014 25.5792 22.7937 25.3979 22.4323C25.2771 22.1913 25.1052 21.9987 24.8821 21.8544C24.6523 21.6967 24.3884 21.5878 24.0903 21.5275C23.7922 21.4673 23.4803 21.4629 23.1545 21.5144C22.8084 21.5587 22.4722 21.6562 22.1459 21.8068C21.5069 22.1016 21.0881 22.4185 20.8897 22.7573C20.6846 23.0827 20.6554 23.4753 20.8023 23.935C21.8648 26.9884 22.9187 29.7575 23.9638 32.242C24.9887 34.7195 25.9941 37.0247 26.98 39.1575C27.1344 39.4653 27.1703 39.7372 27.0877 39.9731C26.9915 40.2153 26.8074 40.3992 26.5355 40.5246C25.9917 40.7756 25.4276 41.003 24.8433 41.2067C24.2523 41.397 23.6613 41.5873 23.0703 41.7776C22.4793 41.968 21.8985 42.1618 21.3278 42.3593C20.7368 42.5496 20.1829 42.764 19.6663 43.0024C19.3264 43.1593 19.0746 43.3249 18.9109 43.4993C18.7337 43.68 18.6242 43.8624 18.5826 44.0464C18.5274 44.2368 18.5298 44.4252 18.5898 44.6118C18.6296 44.7912 18.6898 44.9612 18.7703 45.1218C18.8979 45.3762 19.0526 45.6179 19.2345 45.8471C19.4165 46.0764 19.6291 46.2667 19.8725 46.4181C20.1091 46.5561 20.3766 46.6387 20.6748 46.6659C20.9798 46.7065 21.3158 46.6586 21.6827 46.5222C23.4355 45.9111 25.0255 45.3257 26.4526 44.766C27.8661 44.2126 29.038 43.8119 29.9684 43.5639Z" fill="white"/>
<path d="M29.1688 34.6017C29.1244 34.6087 29.0516 34.6277 28.9504 34.6587C28.8639 34.6874 28.7627 34.7184 28.6467 34.7518C28.5454 34.7828 28.4442 34.8138 28.343 34.8449C28.2417 34.8759 28.1615 34.896 28.1024 34.9053C27.6882 34.9702 27.299 34.8569 26.9351 34.5654C26.5687 34.259 26.3404 33.8174 26.2499 33.2404C26.1897 32.8558 26.2574 32.4663 26.4533 32.0718C26.6491 31.6774 26.9948 31.32 27.4902 30.9999C27.6414 30.9004 27.7543 30.7993 27.8292 30.6967C27.9165 30.5769 27.9463 30.4282 27.9184 30.2507C27.8442 29.7773 27.7506 29.2767 27.6376 28.7487C27.537 28.2037 27.4077 27.5722 27.2497 26.8543C27.2117 26.7087 27.1379 26.5763 27.0283 26.457C26.9334 26.3355 26.8215 26.2015 26.6924 26.055C26.5758 25.8914 26.4643 25.7118 26.3579 25.5163C26.2515 25.3208 26.1739 25.0677 26.1252 24.757C26.0812 24.476 26.0683 24.1521 26.0866 23.7855C26.1174 23.4017 26.2342 23.0348 26.437 22.6847C26.6523 22.3175 26.973 21.9945 27.3991 21.7155C27.8377 21.4194 28.4342 21.2122 29.1887 21.0939C29.4994 21.0452 29.7629 21.0343 29.9793 21.061C30.1956 21.0877 30.3847 21.1338 30.5466 21.1994C30.7209 21.2479 30.8719 21.2924 30.9995 21.333C31.1419 21.3713 31.2797 21.38 31.4128 21.3592C31.6495 21.3221 32.116 21.2035 32.8121 21.0034C33.5083 20.8034 34.3392 20.5443 35.3049 20.2262C36.2853 19.9058 37.3584 19.5482 38.5242 19.1532C39.7048 18.756 40.8979 18.3417 42.1034 17.9102C43.3066 17.4639 44.4803 17.0223 45.6243 16.5853C46.7684 16.1483 47.8026 15.7361 48.7271 15.3487C49.0114 15.2284 49.2645 15.1508 49.4864 15.116C49.797 15.0674 50.0527 15.1031 50.2534 15.2232C50.4666 15.3262 50.6338 15.4743 50.755 15.6675C50.8762 15.8607 50.9651 16.0892 51.0216 16.3532C51.0906 16.6 51.1425 16.8344 51.1773 17.0563C51.2376 17.4409 51.1613 17.8242 50.9483 18.2062C50.7479 18.5711 50.3668 18.8961 49.8052 19.1811C48.4079 19.8397 46.9877 20.4488 45.5446 21.0084C44.114 21.551 42.6651 22.0736 41.1979 22.5764C39.7284 23.0644 38.248 23.5314 36.7567 23.9773C35.2655 24.4232 33.7816 24.868 32.3052 25.3116C32.1027 25.3737 31.9601 25.4794 31.8774 25.6288C31.7924 25.7633 31.7662 25.9342 31.7986 26.1413L31.9412 27.0511C31.9806 27.3026 32.0286 27.5603 32.0852 27.8243C32.1417 28.0882 32.2095 28.3277 32.2887 28.5426C32.3826 28.7552 32.4856 28.9286 32.5975 29.0626C32.7072 29.1818 32.836 29.2298 32.9839 29.2066C33.3389 29.151 33.8747 28.9912 34.5912 28.7274C35.3224 28.4612 36.1378 28.1515 37.0374 27.7983C37.9493 27.428 38.896 27.0371 39.8773 26.6256C40.8711 26.1971 41.8104 25.8073 42.6951 25.4565C43.5775 25.0908 44.3548 24.7795 45.0269 24.5226C45.699 24.2657 46.1756 24.1152 46.4566 24.0711C46.8708 24.0062 47.2058 24.1129 47.4616 24.3911C47.7299 24.6521 47.937 25.0062 48.0828 25.4532C48.0944 25.5272 48.1123 25.5926 48.1363 25.6494C48.1604 25.7063 48.1782 25.7717 48.1898 25.8456C48.2571 26.2747 48.1865 26.6949 47.9782 27.1065C47.7824 27.501 47.3655 27.8391 46.7276 28.121C46.5594 28.208 46.2194 28.3598 45.7077 28.5764C45.1937 28.7782 44.5882 29.0247 43.8911 29.3159C43.1918 29.5922 42.4356 29.8926 41.6225 30.2171C40.8094 30.5416 40.0111 30.8637 39.2276 31.1836C38.4418 31.4886 37.7078 31.7856 37.0255 32.0744C36.3557 32.3461 35.8071 32.5685 35.3795 32.7416C34.9963 32.9078 34.765 33.0274 34.6855 33.1005C34.6208 33.1712 34.5954 33.251 34.6093 33.3398C34.6899 33.6606 34.9002 33.9383 35.2401 34.173C35.5948 34.4054 36.02 34.604 36.5157 34.7688C37.0262 34.9313 37.585 35.0635 38.1921 35.1654C38.814 35.265 39.446 35.3326 40.0882 35.3684C40.7428 35.387 41.3792 35.3858 41.9973 35.3647C42.6155 35.3436 43.1834 35.2925 43.7012 35.2113C43.9231 35.1765 44.2411 35.1267 44.6554 35.0617C45.0696 34.9968 45.5196 34.9187 46.0055 34.8274C46.5038 34.719 47.0084 34.602 47.5192 34.4765C48.0448 34.3486 48.5089 34.2152 48.9115 34.0763C49.3266 33.9203 49.658 33.7623 49.9058 33.6022C50.166 33.425 50.2822 33.2477 50.2543 33.0701C50.2288 32.9074 50.143 32.7466 49.9968 32.5876C49.8654 32.4263 49.7835 32.2421 49.7511 32.035C49.7047 31.7391 49.7408 31.4379 49.8595 31.1313C49.9759 30.81 50.1424 30.5186 50.3591 30.2573C50.5883 29.9789 50.8551 29.7476 51.1597 29.5634C51.4768 29.3621 51.8054 29.2349 52.1457 29.1815C52.5747 29.1143 52.9806 29.1416 53.3635 29.2635C53.744 29.3705 54.0821 29.5449 54.3776 29.7866C54.6857 30.0111 54.9341 30.2905 55.1228 30.6246C55.3264 30.9565 55.4572 31.3073 55.5152 31.6772C55.6682 32.6535 55.4379 33.5536 54.8244 34.3773C54.2256 35.1986 53.3852 35.929 52.3032 36.5685C51.2235 37.2227 49.9762 37.7744 48.5612 38.2236C47.1486 38.6875 45.71 39.0342 44.2454 39.2638C42.5294 39.5328 40.9428 39.6602 39.4855 39.6461C38.0306 39.6468 36.7015 39.4838 35.4984 39.157C34.2953 38.8303 33.2243 38.3312 32.2854 37.6599C31.3443 36.9738 30.5244 36.0944 29.8257 35.0217C29.5949 34.7093 29.3759 34.5693 29.1688 34.6017Z" fill="white"/>
<path d="M62 6H10V57H62V6Z" fill="#AB0202"/>
<path d="M58 60H11V69H58V60Z" fill="white"/>
<path d="M64.8938 3.08459C64.8938 1.39109 63.5779 0 61.9759 0H16.3343C10.0695 0 5.10625 5.24683 5.10625 11.7184C5.10625 11.7184 5.10625 64.5648 5.10625 64.595C5.10625 69.8418 9.18268 74 14.1459 74H61.8329C63.0057 74 64.1643 73.2289 64.6077 71.989C65.0511 70.7491 64.7507 69.3731 63.7352 68.602C61.1463 66.8631 60.989 63.0527 63.2918 61.3592C63.7781 60.8451 64.8794 59.7867 64.7936 58.2746C64.8651 58.0327 64.8938 3.08459 64.8938 3.08459ZM10.942 64.595C10.942 62.7503 12.4009 61.3592 14.1459 61.3592H56.1545C54.8672 63.6273 55.139 66.2885 56.1545 67.8308H14.1459C12.4009 67.8308 10.942 66.4548 10.942 64.595ZM59.0723 55.19H14.1602C13.0302 55.19 11.9575 55.4168 10.9563 55.8251V11.7184C10.9563 8.63384 13.4307 6.16919 16.3486 6.16919H59.0866V55.19H59.0723Z" fill="black"/>
<path d="M29.9684 43.5639C30.3962 43.4488 30.7866 43.3593 31.1396 43.2953C31.4993 43.2447 31.9103 43.1127 32.3726 42.8994C32.8756 42.6673 33.1926 42.3479 33.3236 41.9413C33.4545 41.5347 33.4327 41.1575 33.2582 40.8094C33.1172 40.5284 32.8884 40.1889 32.5717 39.7911C32.2483 39.38 31.9725 38.9468 31.7443 38.4918C30.9735 36.7212 30.2468 34.955 29.5641 33.1932C28.8611 31.4243 28.232 29.8026 27.6767 28.3281C27.1214 26.8537 26.6498 25.5961 26.2618 24.5555C25.8671 23.5014 25.5792 22.7937 25.3979 22.4323C25.2771 22.1913 25.1052 21.9987 24.8821 21.8544C24.6523 21.6967 24.3884 21.5878 24.0903 21.5275C23.7922 21.4673 23.4803 21.4629 23.1545 21.5144C22.8084 21.5587 22.4722 21.6562 22.1459 21.8068C21.5069 22.1016 21.0881 22.4185 20.8897 22.7573C20.6846 23.0827 20.6554 23.4753 20.8023 23.935C21.8648 26.9884 22.9187 29.7575 23.9638 32.242C24.9887 34.7195 25.9941 37.0247 26.98 39.1575C27.1344 39.4653 27.1703 39.7372 27.0877 39.9731C26.9915 40.2153 26.8074 40.3992 26.5355 40.5246C25.9917 40.7756 25.4276 41.003 24.8433 41.2067C24.2523 41.397 23.6613 41.5873 23.0703 41.7776C22.4793 41.968 21.8985 42.1618 21.3278 42.3593C20.7368 42.5496 20.1829 42.764 19.6663 43.0024C19.3264 43.1593 19.0746 43.3249 18.9109 43.4993C18.7337 43.68 18.6242 43.8624 18.5826 44.0464C18.5274 44.2368 18.5298 44.4252 18.5898 44.6118C18.6296 44.7912 18.6898 44.9612 18.7703 45.1218C18.8979 45.3762 19.0526 45.6179 19.2345 45.8471C19.4165 46.0764 19.6291 46.2667 19.8725 46.4181C20.1091 46.5561 20.3766 46.6387 20.6748 46.6659C20.9798 46.7065 21.3158 46.6586 21.6827 46.5222C23.4355 45.9111 25.0255 45.3257 26.4526 44.766C27.8661 44.2126 29.038 43.8119 29.9684 43.5639Z" fill="white"/>
<path d="M29.1688 34.6017C29.1244 34.6087 29.0516 34.6277 28.9504 34.6587C28.8639 34.6874 28.7627 34.7184 28.6467 34.7518C28.5454 34.7828 28.4442 34.8138 28.343 34.8449C28.2417 34.8759 28.1615 34.896 28.1024 34.9053C27.6882 34.9702 27.299 34.8569 26.9351 34.5654C26.5687 34.259 26.3404 33.8174 26.2499 33.2404C26.1897 32.8558 26.2574 32.4663 26.4533 32.0718C26.6491 31.6774 26.9948 31.32 27.4902 30.9999C27.6414 30.9004 27.7543 30.7993 27.8292 30.6967C27.9165 30.5769 27.9463 30.4282 27.9184 30.2507C27.8442 29.7773 27.7506 29.2767 27.6376 28.7487C27.537 28.2037 27.4077 27.5722 27.2497 26.8543C27.2117 26.7087 27.1379 26.5763 27.0283 26.457C26.9334 26.3355 26.8215 26.2015 26.6924 26.055C26.5758 25.8914 26.4643 25.7118 26.3579 25.5163C26.2515 25.3208 26.1739 25.0677 26.1252 24.757C26.0812 24.476 26.0683 24.1521 26.0866 23.7855C26.1174 23.4017 26.2342 23.0348 26.437 22.6847C26.6523 22.3175 26.973 21.9945 27.3991 21.7155C27.8377 21.4194 28.4342 21.2122 29.1887 21.0939C29.4994 21.0452 29.7629 21.0343 29.9793 21.061C30.1956 21.0877 30.3847 21.1338 30.5466 21.1994C30.7209 21.2479 30.8719 21.2924 30.9995 21.333C31.1419 21.3713 31.2797 21.38 31.4128 21.3592C31.6495 21.3221 32.116 21.2035 32.8121 21.0034C33.5083 20.8034 34.3392 20.5443 35.3049 20.2262C36.2853 19.9058 37.3584 19.5482 38.5242 19.1532C39.7048 18.756 40.8979 18.3417 42.1034 17.9102C43.3066 17.4639 44.4803 17.0223 45.6243 16.5853C46.7684 16.1483 47.8026 15.7361 48.7271 15.3487C49.0114 15.2284 49.2645 15.1508 49.4864 15.116C49.797 15.0674 50.0527 15.1031 50.2534 15.2232C50.4666 15.3262 50.6338 15.4743 50.755 15.6675C50.8762 15.8607 50.9651 16.0892 51.0216 16.3532C51.0906 16.6 51.1425 16.8344 51.1773 17.0563C51.2376 17.4409 51.1613 17.8242 50.9483 18.2062C50.7479 18.5711 50.3668 18.8961 49.8052 19.1811C48.4079 19.8397 46.9877 20.4488 45.5446 21.0084C44.114 21.551 42.6651 22.0736 41.1979 22.5764C39.7284 23.0644 38.248 23.5314 36.7567 23.9773C35.2655 24.4232 33.7816 24.868 32.3052 25.3116C32.1027 25.3737 31.9601 25.4794 31.8774 25.6288C31.7924 25.7633 31.7662 25.9342 31.7986 26.1413L31.9412 27.0511C31.9806 27.3026 32.0286 27.5603 32.0852 27.8243C32.1417 28.0882 32.2095 28.3277 32.2887 28.5426C32.3826 28.7552 32.4856 28.9286 32.5975 29.0626C32.7072 29.1818 32.836 29.2298 32.9839 29.2066C33.3389 29.151 33.8747 28.9912 34.5912 28.7274C35.3224 28.4612 36.1378 28.1515 37.0374 27.7983C37.9493 27.428 38.896 27.0371 39.8773 26.6256C40.8711 26.1971 41.8104 25.8073 42.6951 25.4565C43.5775 25.0908 44.3548 24.7795 45.0269 24.5226C45.699 24.2657 46.1756 24.1152 46.4566 24.0711C46.8708 24.0062 47.2058 24.1129 47.4616 24.3911C47.7299 24.6521 47.937 25.0062 48.0828 25.4532C48.0944 25.5272 48.1123 25.5926 48.1363 25.6494C48.1604 25.7063 48.1782 25.7717 48.1898 25.8456C48.2571 26.2747 48.1865 26.6949 47.9782 27.1065C47.7824 27.501 47.3655 27.8391 46.7276 28.121C46.5594 28.208 46.2194 28.3598 45.7077 28.5764C45.1937 28.7782 44.5882 29.0247 43.8911 29.3159C43.1918 29.5922 42.4356 29.8926 41.6225 30.2171C40.8094 30.5416 40.0111 30.8637 39.2276 31.1836C38.4418 31.4886 37.7078 31.7856 37.0255 32.0744C36.3557 32.3461 35.8071 32.5685 35.3795 32.7416C34.9963 32.9078 34.765 33.0274 34.6855 33.1005C34.6208 33.1712 34.5954 33.251 34.6093 33.3398C34.6899 33.6606 34.9002 33.9383 35.2401 34.173C35.5948 34.4054 36.02 34.604 36.5157 34.7688C37.0262 34.9313 37.585 35.0635 38.1921 35.1654C38.814 35.265 39.446 35.3326 40.0882 35.3684C40.7428 35.387 41.3792 35.3858 41.9973 35.3647C42.6155 35.3436 43.1834 35.2925 43.7012 35.2113C43.9231 35.1765 44.2411 35.1267 44.6554 35.0617C45.0696 34.9968 45.5196 34.9187 46.0055 34.8274C46.5038 34.719 47.0084 34.602 47.5192 34.4765C48.0448 34.3486 48.5089 34.2152 48.9115 34.0763C49.3266 33.9203 49.658 33.7623 49.9058 33.6022C50.166 33.425 50.2822 33.2477 50.2543 33.0701C50.2288 32.9074 50.143 32.7466 49.9968 32.5876C49.8654 32.4263 49.7835 32.2421 49.7511 32.035C49.7047 31.7391 49.7408 31.4379 49.8595 31.1313C49.9759 30.81 50.1424 30.5186 50.3591 30.2573C50.5883 29.9789 50.8551 29.7476 51.1597 29.5634C51.4768 29.3621 51.8054 29.2349 52.1457 29.1815C52.5747 29.1143 52.9806 29.1416 53.3635 29.2635C53.744 29.3705 54.0821 29.5449 54.3776 29.7866C54.6857 30.0111 54.9341 30.2905 55.1228 30.6246C55.3264 30.9565 55.4572 31.3073 55.5152 31.6772C55.6682 32.6535 55.4379 33.5536 54.8244 34.3773C54.2256 35.1986 53.3852 35.929 52.3032 36.5685C51.2235 37.2227 49.9762 37.7744 48.5612 38.2236C47.1486 38.6875 45.71 39.0342 44.2454 39.2638C42.5294 39.5328 40.9428 39.6602 39.4855 39.6461C38.0306 39.6468 36.7015 39.4838 35.4984 39.157C34.2953 38.8303 33.2243 38.3312 32.2854 37.6599C31.3443 36.9738 30.5244 36.0944 29.8257 35.0217C29.5949 34.7093 29.3759 34.5693 29.1688 34.6017Z" fill="white"/>
</g>
</g>
<defs>
<clipPath id="clip0_10_16">
<rect width="70" height="74" fill="white"/>
</clipPath>
<clipPath id="clip1_10_16">
<rect width="70" height="74" fill="white"/>
</clipPath>
</defs>
</svg>
