<svg width="32" height="32" viewBox="0 0 32 32" fill="none" xmlns="http://www.w3.org/2000/svg">
<path d="M16 32C18.2091 32 20 30.2091 20 28H12C12 30.2091 13.7909 32 16 32Z" fill="white"/>
<path d="M17.9903 2.19807C17.9967 2.13291 18 2.06684 18 2C18 0.895431 17.1046 0 16 0C14.8954 0 14 0.895431 14 2C14 2.06684 14.0033 2.13292 14.0097 2.19808C9.4404 3.1209 6.00004 7.15868 6.00004 12C6.00004 14.1952 5 24 2 26H30C27 24 26 14.1952 26 12C26 7.15865 22.5596 3.12084 17.9903 2.19807Z" fill="white"/>
</svg>
