<svg width="32" height="32" viewBox="0 0 32 32" fill="none" xmlns="http://www.w3.org/2000/svg">
<path fill-rule="evenodd" clip-rule="evenodd" d="M5 23C5 22.4477 5.44772 22 6 22H26C26.5523 22 27 22.4477 27 23C27 23.5523 26.5523 24 26 24H6C5.44772 24 5 23.5523 5 23Z" fill="white"/>
<path fill-rule="evenodd" clip-rule="evenodd" d="M5 15C5 14.4477 5.44772 14 6 14H26C26.5523 14 27 14.4477 27 15C27 15.5523 26.5523 16 26 16H6C5.44772 16 5 15.5523 5 15Z" fill="white"/>
<path fill-rule="evenodd" clip-rule="evenodd" d="M5 7C5 6.44772 5.44772 6 6 6H26C26.5523 6 27 6.44772 27 7C27 7.55228 26.5523 8 26 8H6C5.44772 8 5 7.55228 5 7Z" fill="white"/>
</svg>
