<?xml version="1.0" encoding="UTF-8" standalone="no"?> <svg width="128" height="128" viewBox="0 0 128 128" fill="none" xmlns="http://www.w3.org/2000/svg">
<path d="M13.9434 70.808C13.9434 67.5599 14.8326 65.8691 16.5234 64.5788L68.4942 86.0253C65.869 94.0344 68.0562 101.26 70.6745 103.289L17.5919 79.0396C16.0865 77.8614 13.9434 74.9461 13.9434 70.808Z" fill="white"/>
<path fill-rule="evenodd" clip-rule="evenodd" d="M15.31 62.9889C15.8758 62.5571 16.6284 62.4585 17.2863 62.73L69.2571 84.1766C70.2247 84.5759 70.7207 85.6536 70.3947 86.6483C69.1877 90.3307 69.0976 93.8044 69.587 96.5487C70.0956 99.401 71.1597 101.135 71.8996 101.709C72.7023 102.331 72.9114 103.455 72.3858 104.324C71.8603 105.193 70.7671 105.531 69.8434 105.109L16.7609 80.8588C16.6179 80.7935 16.4831 80.7115 16.3593 80.6146C14.4313 79.1058 11.9434 75.6357 11.9434 70.8081C11.9434 69.0122 12.1875 67.4806 12.7674 66.1568C13.3604 64.8028 14.2453 63.8014 15.31 62.9889ZM17.5919 79.0396C16.0865 77.8614 13.9434 74.9461 13.9434 70.8081C13.9434 67.5599 14.8326 65.8691 16.5234 64.5788L68.4942 86.0253C66.6696 91.5918 67.1697 96.7799 68.5235 100.108C69.1175 101.568 69.8759 102.671 70.6745 103.289L17.5919 79.0396Z" fill="black"/>
<path d="M114.057 44.1514L63.7861 24.7108L16.2648 64.7701L70.8554 87.7453L114.057 44.1514Z" fill="black"/>
<path fill-rule="evenodd" clip-rule="evenodd" d="M62.497 23.1816C63.0554 22.7109 63.8261 22.582 64.5074 22.8454L114.778 42.286C115.407 42.5294 115.871 43.0737 116.012 43.7335C116.153 44.3934 115.952 45.0799 115.477 45.5592L72.2759 89.1531C71.7013 89.733 70.8319 89.9054 70.0795 89.5887L15.4889 66.6135C14.8472 66.3435 14.3922 65.7592 14.2874 65.071C14.1827 64.3828 14.4434 63.6896 14.9756 63.241L62.497 23.1816ZM63.786 24.7108L114.057 44.1514L70.8553 87.7453L16.2647 64.7701L63.786 24.7108Z" fill="black"/>
<path d="M85.3133 48.7162L63.3328 40.0842L59.1134 43.7045L80.9083 52.832L85.3133 48.7162Z" fill="white"/>
<path d="M114.013 59.061C109.207 55.1454 110.097 48.8716 113.79 44.2441L68.8497 86.6924C66.0912 93.3221 68.3298 99.7321 70.7189 103.267L114.013 59.061Z" fill="white"/>
<path fill-rule="evenodd" clip-rule="evenodd" d="M115.144 42.7723C115.917 43.4833 116.008 44.6709 115.353 45.4917C113.715 47.544 112.78 49.8659 112.713 51.9828C112.648 54.0321 113.384 55.9689 115.276 57.5105C115.712 57.8656 115.978 58.3877 116.009 58.9489C116.041 59.5102 115.835 60.0588 115.441 60.4604L72.1478 104.666C71.7275 105.095 71.1367 105.313 70.5385 105.259C69.9404 105.204 69.3982 104.884 69.0619 104.387C66.4354 100.501 63.9033 93.3743 67.0032 85.924C67.111 85.6648 67.2723 85.4312 67.4764 85.2384L112.417 42.7902C113.18 42.0691 114.371 42.0613 115.144 42.7723ZM113.79 44.2441L68.8497 86.6924C66.5066 92.3237 67.7688 97.7964 69.6662 101.483C70.0027 102.137 70.3591 102.734 70.7189 103.267L114.013 59.061C113.519 58.659 113.086 58.2321 112.709 57.7848C110.712 55.4111 110.317 52.4598 111.056 49.578C111.534 47.7124 112.488 45.8759 113.79 44.2441Z" fill="black"/>
<path fill-rule="evenodd" clip-rule="evenodd" d="M111.216 58.5438C111.6 58.9406 111.59 59.5737 111.193 59.9578L80.5805 89.5915C80.1837 89.9756 79.5506 89.9653 79.1665 89.5685C78.7824 89.1717 78.7927 88.5386 79.1895 88.1545L109.802 58.5208C110.199 58.1367 110.832 58.147 111.216 58.5438Z" fill="black"/>
<path fill-rule="evenodd" clip-rule="evenodd" d="M109.451 56.0674C109.826 56.4723 109.803 57.105 109.398 57.4807L89.6421 75.8126C89.2373 76.1883 88.6046 76.1646 88.2289 75.7598C87.8532 75.3549 87.8769 74.7222 88.2817 74.3465L108.037 56.0146C108.442 55.6389 109.075 55.6626 109.451 56.0674Z" fill="black"/>
<path fill-rule="evenodd" clip-rule="evenodd" d="M24.7621 76.368C24.9784 75.8598 25.5656 75.6232 26.0738 75.8395L45.1255 83.9484C45.6337 84.1647 45.8703 84.752 45.654 85.2602C45.4378 85.7683 44.8505 86.005 44.3423 85.7887L25.2906 77.6797C24.7824 77.4634 24.5458 76.8761 24.7621 76.368Z" fill="black"/>
</svg>
