<svg width="120" height="124" viewBox="0 0 120 124" fill="none" xmlns="http://www.w3.org/2000/svg">
<g clip-path="url(#clip0_60_134)">
<rect x="17.1429" y="10.054" width="89.1429" height="85.4595" fill="#AB0202"/>
<rect x="18.8571" y="100.541" width="80.5714" height="15.0811" fill="white"/>
<path d="M111.246 5.16878C111.246 2.33102 108.991 0 106.244 0H28.0016C17.262 0 8.75358 8.79199 8.75358 19.6363C8.75358 19.6363 8.75358 108.19 8.75358 108.24C8.75358 117.032 15.7417 124 24.2501 124H105.999C108.01 124 109.996 122.708 110.756 120.63C111.516 118.553 111.001 116.247 109.26 114.955C104.822 112.041 104.553 105.656 108.5 102.818C109.334 101.957 111.222 100.183 111.075 97.6494C111.197 97.244 111.246 5.16878 111.246 5.16878ZM18.7577 108.24C18.7577 105.149 21.2587 102.818 24.2501 102.818H96.2648C94.058 106.619 94.5239 111.078 96.2648 113.662H24.2501C21.2587 113.662 18.7577 111.357 18.7577 108.24ZM101.267 92.4806H24.2746C22.3376 92.4806 20.4986 92.8606 18.7822 93.5448V19.6363C18.7822 14.4675 23.0241 10.3376 28.0262 10.3376H101.291V92.4806H101.267Z" fill="black"/>
<path d="M44.9318 48.5505C45.3618 48.4385 45.7543 48.3517 46.1092 48.29C46.471 48.2417 46.884 48.1128 47.348 47.9035C47.8531 47.6757 48.1703 47.3603 48.2998 46.9574C48.4292 46.5545 48.4051 46.1798 48.2273 45.8334C48.0838 45.5536 47.8515 45.2155 47.5303 44.8189C47.2024 44.409 46.9222 43.9776 46.6898 43.5246C45.9036 41.7629 45.1617 40.0058 44.4642 38.2532C43.7463 36.4935 43.1035 34.8803 42.5359 33.4137C41.9683 31.9471 41.4862 30.6962 41.0896 29.6611C40.6861 28.6126 40.3921 27.9085 40.2075 27.5488C40.0845 27.309 39.9103 27.1169 39.6849 26.9725C39.4527 26.8147 39.1864 26.7052 38.886 26.6438C38.5855 26.5825 38.2715 26.5765 37.9438 26.6258C37.5957 26.668 37.2578 26.763 36.9303 26.9108C36.2887 27.2002 35.8691 27.5125 35.6713 27.8478C35.4667 28.1698 35.4397 28.5593 35.5902 29.0164C36.6776 32.0532 37.7547 34.8076 38.8213 37.2796C39.8674 39.7444 40.8929 42.038 41.8978 44.1605C42.055 44.4669 42.0928 44.737 42.011 44.9708C41.9156 45.2107 41.7314 45.3922 41.4584 45.5153C40.9124 45.7616 40.3459 45.9844 39.759 46.1835C39.1651 46.3693 38.5713 46.5552 37.9775 46.741C37.3837 46.9268 36.8002 47.1162 36.2268 47.3092C35.633 47.4951 35.0768 47.705 34.5581 47.9389C34.2169 48.0929 33.9644 48.256 33.8007 48.4283C33.6233 48.6067 33.5142 48.7872 33.4733 48.9697C33.4188 49.1583 33.4224 49.3454 33.4839 49.5309C33.525 49.7092 33.5866 49.8783 33.6686 50.0382C33.7985 50.2914 33.9556 50.5322 34.1401 50.7607C34.3246 50.9892 34.5398 51.1792 34.7856 51.3308C35.0246 51.4691 35.2944 51.5525 35.5948 51.5811C35.902 51.6229 36.2399 51.5772 36.6084 51.4437C38.3694 50.8463 39.9664 50.2735 41.3997 49.7254C42.8193 49.1834 43.9967 48.7918 44.9318 48.5505Z" fill="white"/>
<path d="M44.312 38.6782C44.2676 38.685 44.1948 38.7038 44.0936 38.7344C44.0071 38.7628 43.9059 38.7935 43.7898 38.8264C43.6886 38.8571 43.5874 38.8877 43.4861 38.9184C43.3849 38.949 43.3047 38.9689 43.2455 38.978C42.831 39.0415 42.4411 38.927 42.0758 38.6346C41.7081 38.3273 41.478 37.8854 41.3855 37.3088C41.3239 36.9244 41.3904 36.5355 41.5851 36.1421C41.7798 35.7487 42.1247 35.3929 42.6196 35.0747C42.7705 34.9758 42.8833 34.8753 42.9579 34.7729C43.0449 34.6536 43.0742 34.5052 43.0457 34.3278C42.9699 33.8546 42.8745 33.3542 42.7595 32.8265C42.657 32.2817 42.5254 31.6505 42.3649 30.9328C42.3263 30.7872 42.252 30.6547 42.1419 30.5352C42.0465 30.4135 41.934 30.2793 41.8043 30.1325C41.6871 29.9687 41.5748 29.789 41.4676 29.5933C41.3604 29.3977 41.282 29.1446 41.2322 28.8341C41.1871 28.5532 41.1732 28.2296 41.1903 27.8635C41.2198 27.4802 41.3355 27.1141 41.5373 26.765C41.7516 26.399 42.0715 26.0773 42.4972 25.8C42.9353 25.5056 43.5317 25.3006 44.2866 25.185C44.5974 25.1374 44.8612 25.1272 45.0779 25.1546C45.2946 25.182 45.4841 25.2287 45.6463 25.2948C45.821 25.3438 45.9722 25.3887 46.1001 25.4297C46.2428 25.4685 46.3808 25.4776 46.514 25.4572C46.7508 25.4209 47.2173 25.304 47.9136 25.1065C48.6098 24.9089 49.4407 24.6528 50.4063 24.3383C51.3867 24.0214 52.4598 23.6677 53.6255 23.277C54.806 22.884 55.999 22.4741 57.2043 22.047C58.4073 21.6052 59.5807 21.1679 60.7245 20.7351C61.8683 20.3023 62.9023 19.894 63.8264 19.51C64.1106 19.3907 64.3637 19.3141 64.5857 19.2801C64.8966 19.2325 65.1526 19.269 65.354 19.3896C65.5677 19.4932 65.7356 19.6417 65.8576 19.8351C65.9796 20.0284 66.0693 20.2571 66.1268 20.5209C66.1967 20.7677 66.2494 21.002 66.285 21.2238C66.3466 21.6082 66.2715 21.9909 66.0596 22.3717C65.8602 22.7356 65.4798 23.0589 64.9186 23.3419C63.522 23.9951 62.1023 24.5989 60.6596 25.1532C59.2292 25.6905 57.7805 26.2078 56.3135 26.7053C54.8441 27.1879 53.3637 27.6495 51.8723 28.0901C50.381 28.5307 48.8971 28.9701 47.4205 29.4084C47.2181 29.4697 47.0757 29.5748 46.9934 29.7238C46.9088 29.8579 46.883 30.0285 46.9162 30.2355L47.062 31.1448C47.1023 31.3961 47.1512 31.6537 47.2087 31.9176C47.2662 32.1814 47.3349 32.4209 47.4149 32.6358C47.5096 32.8485 47.6133 33.022 47.7258 33.1563C47.8359 33.2757 47.965 33.3241 48.113 33.3014C48.4683 33.247 49.0041 33.0892 49.7204 32.8279C50.4516 32.5644 51.2668 32.2578 52.1661 31.9079C53.0778 31.541 54.0241 31.1536 55.0051 30.7458C55.9985 30.3209 56.9375 29.9347 57.822 29.5871C58.7041 29.2248 59.4811 28.9163 60.1531 28.6619C60.825 28.4075 61.3016 28.2587 61.5828 28.2156C61.9973 28.1521 62.333 28.2598 62.59 28.5385C62.8594 28.8002 63.0679 29.1545 63.2154 29.6015C63.2273 29.6755 63.2453 29.7409 63.2696 29.7977C63.2939 29.8546 63.312 29.92 63.3238 29.9939C63.3926 30.4227 63.3234 30.8423 63.1162 31.2527C62.9215 31.6461 62.5053 31.9826 61.8677 32.262C61.6996 32.3484 61.3598 32.4989 60.8483 32.7136C60.3344 32.9135 59.729 33.1578 59.0322 33.4463C58.3331 33.7201 57.577 34.0177 56.7642 34.3391C55.9513 34.6606 55.1533 34.9798 54.37 35.2967C53.5844 35.5989 52.8506 35.8931 52.1686 36.1793C51.499 36.4486 50.9505 36.6689 50.5231 36.8405C50.14 37.0052 49.9088 37.1239 49.8295 37.1967C49.765 37.2671 49.7398 37.3467 49.7541 37.4355C49.8358 37.7562 50.0472 38.0343 50.3883 38.2699C50.7442 38.5032 51.1705 38.703 51.6673 38.8692C52.1789 39.0332 52.7387 39.1671 53.3467 39.2709C53.9696 39.3724 54.6025 39.442 55.2455 39.4799C55.901 39.5006 56.538 39.5015 57.1567 39.4824C57.7754 39.4634 58.3438 39.4142 58.8618 39.3348C59.0839 39.3008 59.4021 39.252 59.8165 39.1885C60.231 39.125 60.6812 39.0485 61.1673 38.9589C61.6658 38.8522 62.1705 38.737 62.6814 38.6133C63.2072 38.4873 63.6713 38.3556 64.0739 38.2181C64.4889 38.0637 64.8202 37.9069 65.0676 37.7478C65.3275 37.5716 65.4432 37.3949 65.4148 37.2174C65.3887 37.0548 65.3022 36.8938 65.1554 36.7346C65.0233 36.573 64.9407 36.3887 64.9075 36.1817C64.8601 35.886 64.8952 35.5853 65.013 35.2794C65.1284 34.9588 65.2941 34.6683 65.5102 34.4079C65.7387 34.1306 66.0051 33.9004 66.3094 33.7174C66.6261 33.5174 66.9547 33.3914 67.2951 33.3392C67.7243 33.2734 68.1308 33.302 68.5145 33.425C68.8958 33.5333 69.2348 33.7085 69.5314 33.9509C69.8405 34.1762 70.0901 34.4561 70.2802 34.7905C70.4851 35.1227 70.6172 35.4736 70.6765 35.8432C70.833 36.819 70.6055 37.7173 69.994 38.5381C69.3974 39.3567 68.5585 40.0835 67.4775 40.7188C66.3989 41.3688 65.1521 41.9158 63.7371 42.3598C62.3246 42.8186 60.8856 43.1602 59.4203 43.3847C57.7033 43.6478 56.1154 43.7699 54.6566 43.751C53.2001 43.747 51.8691 43.5797 50.6636 43.2494C49.4581 42.919 48.3843 42.417 47.4422 41.7434C46.4977 41.0549 45.674 40.1737 44.9711 39.0999C44.7389 38.787 44.5192 38.6465 44.312 38.6782Z" fill="white"/>
<g clip-path="url(#clip1_60_134)">
<path d="M106.286 10.054H17.1429V95.5135H106.286V10.054Z" fill="#AB0202"/>
<path d="M99.4286 100.541H18.8571V115.622H99.4286V100.541Z" fill="white"/>
<path d="M111.247 5.16877C111.247 2.33102 108.991 0 106.244 0H28.0017C17.262 0 8.75357 8.79199 8.75357 19.6362C8.75357 19.6362 8.75357 108.19 8.75357 108.24C8.75357 117.032 15.7417 124 24.2501 124H105.999C108.01 124 109.996 122.708 110.756 120.63C111.516 118.553 111.001 116.247 109.26 114.955C104.822 112.041 104.553 105.656 108.5 102.818C109.334 101.957 111.222 100.183 111.075 97.6493C111.197 97.244 111.247 5.16877 111.247 5.16877ZM18.7577 108.24C18.7577 105.149 21.2587 102.818 24.2501 102.818H96.2649C94.0581 106.619 94.524 111.078 96.2649 113.662H24.2501C21.2587 113.662 18.7577 111.357 18.7577 108.24ZM101.267 92.4805H24.2746C22.3375 92.4805 20.4986 92.8606 18.7822 93.5448V19.6362C18.7822 14.4675 23.0241 10.3376 28.0262 10.3376H101.291V92.4805H101.267Z" fill="black"/>
<path d="M51.3744 72.999C52.1078 72.8061 52.777 72.6561 53.3822 72.5489C53.9988 72.4641 54.7034 72.2429 55.4959 71.8855C56.3582 71.4966 56.9016 70.9613 57.1262 70.28C57.3506 69.5987 57.3132 68.9666 57.0141 68.3833C56.7723 67.9125 56.3801 67.3436 55.8372 66.677C55.2828 65.9881 54.81 65.2622 54.4188 64.4998C53.0974 61.5328 51.8517 58.5732 50.6813 55.621C49.4762 52.6569 48.3977 49.9395 47.4458 47.4687C46.4938 44.9981 45.6854 42.8908 45.0202 41.1471C44.3436 39.3807 43.8501 38.1949 43.5393 37.5893C43.3322 37.1854 43.0375 36.8627 42.655 36.6209C42.2611 36.3566 41.8087 36.1742 41.2977 36.0731C40.7866 35.9722 40.2519 35.9649 39.6934 36.0512C39.1001 36.1254 38.5238 36.2888 37.9644 36.5411C36.869 37.0351 36.151 37.5661 35.8109 38.1339C35.4593 38.6791 35.4093 39.337 35.6611 40.1073C37.4825 45.2238 39.2892 49.8639 41.0808 54.0271C42.8378 58.1786 44.5613 62.0414 46.2514 65.6153C46.5161 66.131 46.5777 66.5867 46.4361 66.982C46.2711 67.3878 45.9555 67.696 45.4894 67.9061C44.5572 68.3267 43.5902 68.7077 42.5885 69.0491C41.5754 69.3679 40.5622 69.6868 39.5491 70.0057C38.5359 70.3248 37.5403 70.6495 36.5619 70.9804C35.5488 71.2993 34.5993 71.6586 33.7137 72.0581C33.131 72.321 32.6993 72.5985 32.4187 72.8907C32.1149 73.1935 31.9272 73.4992 31.8559 73.8075C31.7613 74.1265 31.7654 74.4422 31.8682 74.7549C31.9365 75.0555 32.0397 75.3404 32.1777 75.6095C32.3964 76.0358 32.6616 76.4408 32.9734 76.8249C33.2854 77.2091 33.6499 77.528 34.0671 77.7817C34.4727 78.0129 34.9313 78.1513 35.4425 78.1969C35.9654 78.2649 36.5414 78.1847 37.1703 77.9561C40.1751 76.9321 42.9009 75.9512 45.3473 75.0133C47.7705 74.086 49.7794 73.4145 51.3744 72.999Z" fill="white"/>
<path d="M50.0037 57.9812C49.9275 57.993 49.8027 58.0248 49.6293 58.0767C49.481 58.1248 49.3075 58.1768 49.1086 58.2328C48.935 58.2847 48.7615 58.3366 48.588 58.3888C48.4143 58.4407 48.2769 58.4744 48.1755 58.49C47.4655 58.5987 46.7983 58.4089 46.1745 57.9204C45.5463 57.407 45.155 56.667 44.9998 55.7001C44.8966 55.0557 45.0127 54.403 45.3485 53.7419C45.6842 53.0811 46.2768 52.4822 47.1261 51.9458C47.3853 51.7791 47.5788 51.6096 47.7072 51.4377C47.8569 51.237 47.9079 50.9878 47.8601 50.6904C47.7329 49.8971 47.5725 49.0583 47.3787 48.1735C47.2063 47.2603 46.9846 46.2021 46.7138 44.9991C46.6486 44.7551 46.5221 44.5333 46.3342 44.3334C46.1715 44.1298 45.9797 43.9052 45.7584 43.6597C45.5585 43.3856 45.3674 43.0846 45.185 42.757C45.0026 42.4295 44.8695 42.0053 44.7861 41.4847C44.7106 41.0138 44.6885 40.4711 44.7199 39.8568C44.7727 39.2137 44.9729 38.5989 45.3206 38.0122C45.6897 37.3969 46.2394 36.8557 46.9699 36.3881C47.7218 35.892 48.7443 35.5448 50.0378 35.3465C50.5704 35.2649 51.0221 35.2467 51.3931 35.2914C51.7639 35.3362 52.0881 35.4134 52.3656 35.5233C52.6644 35.6046 52.9233 35.6792 53.142 35.7472C53.3861 35.8114 53.6223 35.826 53.8505 35.7911C54.2563 35.7289 55.056 35.5302 56.2493 35.1949C57.4428 34.8598 58.8672 34.4256 60.5227 33.8926C62.2034 33.3557 64.043 32.7564 66.0415 32.0946C68.0654 31.429 70.1107 30.7347 72.1773 30.0117C74.2399 29.2638 76.2519 28.5239 78.2131 27.7916C80.1744 27.0593 81.9473 26.3686 83.5322 25.7194C84.0195 25.5179 84.4534 25.3878 84.8338 25.3295C85.3663 25.2481 85.8046 25.3079 86.1487 25.5092C86.5142 25.6817 86.8008 25.9299 87.0086 26.2537C87.2164 26.5774 87.3687 26.9603 87.4656 27.4027C87.5839 27.8162 87.6729 28.209 87.7325 28.5808C87.8359 29.2253 87.7051 29.8676 87.3399 30.5077C86.9964 31.1191 86.3431 31.6637 85.3803 32.1413C82.985 33.2449 80.5504 34.2656 78.0765 35.2033C75.624 36.1125 73.1402 36.9882 70.625 37.8307C68.1058 38.6485 65.568 39.431 63.0115 40.1782C60.4551 40.9254 57.9113 41.6707 55.3803 42.414C55.0332 42.5181 54.7887 42.6952 54.647 42.9456C54.5013 43.1709 54.4563 43.4573 54.5119 43.8043L54.7563 45.3289C54.8239 45.7503 54.9062 46.1821 55.0032 46.6245C55.1001 47.0667 55.2163 47.468 55.3521 47.8281C55.513 48.1844 55.6896 48.475 55.8814 48.6995C56.0695 48.8992 56.2903 48.9797 56.5438 48.9408C57.1524 48.8476 58.0709 48.5799 59.2992 48.1378C60.5527 47.6917 61.9505 47.1728 63.4927 46.5809C65.0559 45.9604 66.6789 45.3054 68.3611 44.6159C70.0647 43.8979 71.675 43.2447 73.1916 42.6568C74.7043 42.044 76.0368 41.5224 77.189 41.0919C78.3411 40.6614 79.1582 40.4093 79.6399 40.3354C80.3499 40.2266 80.9242 40.4054 81.3628 40.8716C81.8227 41.3089 82.1777 41.9023 82.4277 42.6513C82.4476 42.7753 82.4782 42.8849 82.5194 42.9801C82.5607 43.0754 82.5912 43.185 82.6111 43.3088C82.7265 44.0279 82.6054 44.732 82.2483 45.4217C81.9127 46.0828 81.198 46.6493 80.1045 47.1217C79.8161 47.2675 79.2333 47.5218 78.3561 47.8848C77.4749 48.2229 76.4369 48.636 75.2419 49.1239C74.0431 49.5869 72.7467 50.0903 71.3529 50.6341C69.959 51.1778 68.5905 51.7176 67.2473 52.2536C65.9002 52.7647 64.6419 53.2624 63.4723 53.7463C62.3241 54.2016 61.3836 54.5742 60.6506 54.8643C59.9937 55.1428 59.5971 55.3432 59.4609 55.4657C59.3499 55.5842 59.3064 55.7179 59.3302 55.8667C59.4684 56.4043 59.8289 56.8696 60.4116 57.2629C61.0197 57.6523 61.7486 57.9851 62.5983 58.2612C63.4735 58.5335 64.4314 58.7551 65.4722 58.9258C66.5383 59.0927 67.6217 59.206 68.7226 59.266C69.8448 59.2971 70.9358 59.2951 71.9954 59.2598C73.0551 59.2244 74.0287 59.1388 74.9163 59.0027C75.2967 58.9444 75.8419 58.861 76.5521 58.752C77.2622 58.6433 78.0336 58.5124 78.8666 58.3594C79.7208 58.1778 80.5858 57.9817 81.4615 57.7714C82.3625 57.5571 83.1581 57.3336 83.8483 57.1008C84.5599 56.8394 85.128 56.5747 85.5528 56.3064C85.9989 56.0095 86.1981 55.7124 86.1502 55.4148C86.1065 55.1421 85.9594 54.8727 85.7088 54.6063C85.4835 54.336 85.3431 54.0273 85.2876 53.6803C85.2081 53.1844 85.27 52.6797 85.4734 52.166C85.673 51.6276 85.9584 51.1393 86.3299 50.7014C86.7228 50.2349 87.1802 49.8473 87.7023 49.5387C88.2459 49.2014 88.8093 48.9882 89.3926 48.8987C90.1281 48.7861 90.8239 48.8319 91.4803 49.0361C92.1326 49.2154 92.7122 49.5077 93.2188 49.9127C93.7469 50.2889 94.1727 50.7571 94.4962 51.3169C94.8453 51.8731 95.0695 52.4609 95.1689 53.0807C95.4312 54.7167 95.0364 56.225 93.9847 57.6052C92.9582 58.9814 91.5175 60.2054 89.6626 61.277C87.8117 62.3732 85.6735 63.2976 83.2478 64.0504C80.8262 64.8277 78.36 65.4087 75.8493 65.7934C72.9075 66.2442 70.1877 66.4576 67.6894 66.434C65.1953 66.4352 62.9169 66.1621 60.8544 65.6144C58.7919 65.067 56.9559 64.2307 55.3464 63.1058C53.7331 61.9561 52.3275 60.4825 51.1298 58.685C50.7341 58.1615 50.3587 57.9269 50.0037 57.9812Z" fill="white"/>
<path d="M106.286 10.054H17.1429V95.5135H106.286V10.054Z" fill="#AB0202"/>
<path d="M99.4286 100.541H18.8571V115.622H99.4286V100.541Z" fill="white"/>
<path d="M111.247 5.16877C111.247 2.33102 108.991 0 106.244 0H28.0017C17.262 0 8.75357 8.79199 8.75357 19.6362C8.75357 19.6362 8.75357 108.19 8.75357 108.24C8.75357 117.032 15.7417 124 24.2501 124H105.999C108.01 124 109.996 122.708 110.756 120.63C111.516 118.553 111.001 116.247 109.26 114.955C104.822 112.041 104.553 105.656 108.5 102.818C109.334 101.957 111.222 100.183 111.075 97.6493C111.197 97.244 111.247 5.16877 111.247 5.16877ZM18.7577 108.24C18.7577 105.149 21.2587 102.818 24.2501 102.818H96.2649C94.0581 106.619 94.524 111.078 96.2649 113.662H24.2501C21.2587 113.662 18.7577 111.357 18.7577 108.24ZM101.267 92.4805H24.2746C22.3375 92.4805 20.4986 92.8606 18.7822 93.5448V19.6362C18.7822 14.4675 23.0241 10.3376 28.0262 10.3376H101.291V92.4805H101.267Z" fill="black"/>
<path d="M51.3744 72.999C52.1078 72.8061 52.777 72.6561 53.3822 72.5489C53.9988 72.4641 54.7034 72.2429 55.4959 71.8855C56.3582 71.4966 56.9016 70.9613 57.1262 70.28C57.3506 69.5987 57.3132 68.9666 57.0141 68.3833C56.7723 67.9125 56.3801 67.3436 55.8372 66.677C55.2828 65.9881 54.81 65.2622 54.4188 64.4998C53.0974 61.5328 51.8517 58.5732 50.6813 55.621C49.4762 52.6569 48.3977 49.9395 47.4458 47.4687C46.4938 44.9981 45.6854 42.8908 45.0202 41.1471C44.3436 39.3807 43.8501 38.1949 43.5393 37.5893C43.3322 37.1854 43.0375 36.8627 42.655 36.6209C42.2611 36.3566 41.8087 36.1742 41.2977 36.0731C40.7866 35.9722 40.2519 35.9649 39.6934 36.0512C39.1001 36.1254 38.5238 36.2888 37.9644 36.5411C36.869 37.0351 36.151 37.5661 35.8109 38.1339C35.4593 38.6791 35.4093 39.337 35.6611 40.1073C37.4825 45.2238 39.2892 49.8639 41.0808 54.0271C42.8378 58.1786 44.5613 62.0414 46.2514 65.6153C46.5161 66.131 46.5777 66.5867 46.4361 66.982C46.2711 67.3878 45.9555 67.696 45.4894 67.9061C44.5572 68.3267 43.5902 68.7077 42.5885 69.0491C41.5754 69.3679 40.5622 69.6868 39.5491 70.0057C38.5359 70.3248 37.5403 70.6495 36.5619 70.9804C35.5488 71.2993 34.5993 71.6586 33.7137 72.0581C33.131 72.321 32.6993 72.5985 32.4187 72.8907C32.1149 73.1935 31.9272 73.4992 31.8559 73.8075C31.7613 74.1265 31.7654 74.4422 31.8682 74.7549C31.9365 75.0555 32.0397 75.3404 32.1777 75.6095C32.3964 76.0358 32.6616 76.4408 32.9734 76.8249C33.2854 77.2091 33.6499 77.528 34.0671 77.7817C34.4727 78.0129 34.9313 78.1513 35.4425 78.1969C35.9654 78.2649 36.5414 78.1847 37.1703 77.9561C40.1751 76.9321 42.9009 75.9512 45.3473 75.0133C47.7705 74.086 49.7794 73.4145 51.3744 72.999Z" fill="white"/>
<path d="M50.0037 57.9812C49.9275 57.993 49.8027 58.0248 49.6293 58.0767C49.481 58.1248 49.3075 58.1768 49.1086 58.2328C48.935 58.2847 48.7615 58.3366 48.588 58.3888C48.4143 58.4407 48.2769 58.4744 48.1755 58.49C47.4655 58.5987 46.7983 58.4089 46.1745 57.9204C45.5463 57.407 45.155 56.667 44.9998 55.7001C44.8966 55.0557 45.0127 54.403 45.3485 53.7419C45.6842 53.0811 46.2768 52.4822 47.1261 51.9458C47.3853 51.7791 47.5788 51.6096 47.7072 51.4377C47.8569 51.237 47.9079 50.9878 47.8601 50.6904C47.7329 49.8971 47.5725 49.0583 47.3787 48.1735C47.2063 47.2603 46.9846 46.2021 46.7138 44.9991C46.6486 44.7551 46.5221 44.5333 46.3342 44.3334C46.1715 44.1298 45.9797 43.9052 45.7584 43.6597C45.5585 43.3856 45.3674 43.0846 45.185 42.757C45.0026 42.4295 44.8695 42.0053 44.7861 41.4847C44.7106 41.0138 44.6885 40.4711 44.7199 39.8568C44.7727 39.2137 44.9729 38.5989 45.3206 38.0122C45.6897 37.3969 46.2394 36.8557 46.9699 36.3881C47.7218 35.892 48.7443 35.5448 50.0378 35.3465C50.5704 35.2649 51.0221 35.2467 51.3931 35.2914C51.7639 35.3362 52.0881 35.4134 52.3656 35.5233C52.6644 35.6046 52.9233 35.6792 53.142 35.7472C53.3861 35.8114 53.6223 35.826 53.8505 35.7911C54.2563 35.7289 55.056 35.5302 56.2493 35.1949C57.4428 34.8598 58.8672 34.4256 60.5227 33.8926C62.2034 33.3557 64.043 32.7564 66.0415 32.0946C68.0654 31.429 70.1107 30.7347 72.1773 30.0117C74.2399 29.2638 76.2519 28.5239 78.2131 27.7916C80.1744 27.0593 81.9473 26.3686 83.5322 25.7194C84.0195 25.5179 84.4534 25.3878 84.8338 25.3295C85.3663 25.2481 85.8046 25.3079 86.1487 25.5092C86.5142 25.6817 86.8008 25.9299 87.0086 26.2537C87.2164 26.5774 87.3687 26.9603 87.4656 27.4027C87.5839 27.8162 87.6729 28.209 87.7325 28.5808C87.8359 29.2253 87.7051 29.8676 87.3399 30.5077C86.9964 31.1191 86.3431 31.6637 85.3803 32.1413C82.985 33.2449 80.5504 34.2656 78.0765 35.2033C75.624 36.1125 73.1402 36.9882 70.625 37.8307C68.1058 38.6485 65.568 39.431 63.0115 40.1782C60.4551 40.9254 57.9113 41.6707 55.3803 42.414C55.0332 42.5181 54.7887 42.6952 54.647 42.9456C54.5013 43.1709 54.4563 43.4573 54.5119 43.8043L54.7563 45.3289C54.8239 45.7503 54.9062 46.1821 55.0032 46.6245C55.1001 47.0667 55.2163 47.468 55.3521 47.8281C55.513 48.1844 55.6896 48.475 55.8814 48.6995C56.0695 48.8992 56.2903 48.9797 56.5438 48.9408C57.1524 48.8476 58.0709 48.5799 59.2992 48.1378C60.5527 47.6917 61.9505 47.1728 63.4927 46.5809C65.0559 45.9604 66.6789 45.3054 68.3611 44.6159C70.0647 43.8979 71.675 43.2447 73.1916 42.6568C74.7043 42.044 76.0368 41.5224 77.189 41.0919C78.3411 40.6614 79.1582 40.4093 79.6399 40.3354C80.3499 40.2266 80.9242 40.4054 81.3628 40.8716C81.8227 41.3089 82.1777 41.9023 82.4277 42.6513C82.4476 42.7753 82.4782 42.8849 82.5194 42.9801C82.5607 43.0754 82.5912 43.185 82.6111 43.3088C82.7265 44.0279 82.6054 44.732 82.2483 45.4217C81.9127 46.0828 81.198 46.6493 80.1045 47.1217C79.8161 47.2675 79.2333 47.5218 78.3561 47.8848C77.4749 48.2229 76.4369 48.636 75.2419 49.1239C74.0431 49.5869 72.7467 50.0903 71.3529 50.6341C69.959 51.1778 68.5905 51.7176 67.2473 52.2536C65.9002 52.7647 64.6419 53.2624 63.4723 53.7463C62.3241 54.2016 61.3836 54.5742 60.6506 54.8643C59.9937 55.1428 59.5971 55.3432 59.4609 55.4657C59.3499 55.5842 59.3064 55.7179 59.3302 55.8667C59.4684 56.4043 59.8289 56.8696 60.4116 57.2629C61.0197 57.6523 61.7486 57.9851 62.5983 58.2612C63.4735 58.5335 64.4314 58.7551 65.4722 58.9258C66.5383 59.0927 67.6217 59.206 68.7226 59.266C69.8448 59.2971 70.9358 59.2951 71.9954 59.2598C73.0551 59.2244 74.0287 59.1388 74.9163 59.0027C75.2967 58.9444 75.8419 58.861 76.5521 58.752C77.2622 58.6433 78.0336 58.5124 78.8666 58.3594C79.7208 58.1778 80.5858 57.9817 81.4615 57.7714C82.3625 57.5571 83.1581 57.3336 83.8483 57.1008C84.5599 56.8394 85.128 56.5747 85.5528 56.3064C85.9989 56.0095 86.1981 55.7124 86.1502 55.4148C86.1065 55.1421 85.9594 54.8727 85.7088 54.6063C85.4835 54.336 85.3431 54.0273 85.2876 53.6803C85.2081 53.1844 85.27 52.6797 85.4734 52.166C85.673 51.6276 85.9584 51.1393 86.3299 50.7014C86.7228 50.2349 87.1802 49.8473 87.7023 49.5387C88.2459 49.2014 88.8093 48.9882 89.3926 48.8987C90.1281 48.7861 90.8239 48.8319 91.4803 49.0361C92.1326 49.2154 92.7122 49.5077 93.2188 49.9127C93.7469 50.2889 94.1727 50.7571 94.4962 51.3169C94.8453 51.8731 95.0695 52.4609 95.1689 53.0807C95.4312 54.7167 95.0364 56.225 93.9847 57.6052C92.9582 58.9814 91.5175 60.2054 89.6626 61.277C87.8117 62.3732 85.6735 63.2976 83.2478 64.0504C80.8262 64.8277 78.36 65.4087 75.8493 65.7934C72.9075 66.2442 70.1877 66.4576 67.6894 66.434C65.1953 66.4352 62.9169 66.1621 60.8544 65.6144C58.7919 65.067 56.9559 64.2307 55.3464 63.1058C53.7331 61.9561 52.3275 60.4825 51.1298 58.685C50.7341 58.1615 50.3587 57.9269 50.0037 57.9812Z" fill="white"/>
</g>
</g>
<defs>
<clipPath id="clip0_60_134">
<rect width="120" height="124" fill="white"/>
</clipPath>
<clipPath id="clip1_60_134">
<rect width="120" height="124" fill="white"/>
</clipPath>
</defs>
</svg>
